<?xml version="1.0" encoding="UTF-8"?>
<!DOCTYPE svg PUBLIC "-//W3C//DTD SVG 1.1//EN" "http://www.w3.org/Graphics/SVG/1.1/DTD/svg11.dtd">
<!-- Creator: CorelDRAW -->
<svg xmlns="http://www.w3.org/2000/svg" xml:space="preserve" width="271px" height="294px" version="1.1" style="shape-rendering:geometricPrecision; text-rendering:geometricPrecision; image-rendering:optimizeQuality; fill-rule:evenodd; clip-rule:evenodd"
viewBox="0 0 105.713 114.655"
 xmlns:xlink="http://www.w3.org/1999/xlink"
 xmlns:xodm="http://www.corel.com/coreldraw/odm/2003">
 <defs>
  <style type="text/css">
   <![CDATA[
    .str0 {stroke:#E6E6E6;stroke-width:1.558;stroke-miterlimit:22.9256}
    .str1 {stroke:#0F133A;stroke-width:3.122;stroke-linecap:round;stroke-linejoin:round;stroke-miterlimit:10;stroke-dasharray:74.954000 1.571000 1.571000}
    .str2 {stroke:#0F133A;stroke-width:3.122;stroke-linecap:round;stroke-linejoin:round;stroke-miterlimit:10;stroke-dasharray:59.727000 22.852000 6.232000 4.674000}
    .fil3 {fill:none}
    .fil8 {fill:none;fill-rule:nonzero}
    .fil1 {fill:#0EBDED}
    .fil0 {fill:#1A1A1A}
    .fil2 {fill:#E8E815}
    .fil7 {fill:#0F133A;fill-rule:nonzero}
    .fil9 {fill:#1A1A1A;fill-rule:nonzero}
    .fil6 {fill:#D8DFDF;fill-rule:nonzero}
    .fil4 {fill:red;fill-rule:nonzero}
    .fil5 {fill:white;fill-rule:nonzero}
   ]]>
  </style>
 </defs>
 <g id="Layer_x0020_1">
  <metadata id="CorelCorpID_0Corel-Layer"/>
  <g id="_3000818708448">
   <path class="fil0 str0" d="M52.856 112.967l-51.805 -99.517c29.417,-15.313 64.101,-16.828 94.74,-4.137 3.016,1.249 5.975,2.63 8.871,4.137l-51.806 99.517z"/>
   <g>
    <path class="fil1" d="M52.856 18.672l0 94.294 0 0.001 -44.334 -85.165c14.115,-6.073 29.209,-9.129 44.334,-9.13z"/>
    <path class="fil2" d="M52.856 112.966l0 -94.294c14.565,-0.001 29.159,2.831 42.935,8.537 0.468,0.194 0.935,0.391 1.4,0.591l-44.335 85.166z"/>
   </g>
   <path class="fil3 str0" d="M52.856 112.967l-44.334 -85.165c27.708,-11.922 59.187,-12.225 87.269,-0.593 0.468,0.194 0.935,0.391 1.4,0.591l-44.335 85.167z"/>
   <path class="fil4" d="M26.941 17.728l-1.718 -8.76 1.162 -0.228 0.852 4.344 3.5 -5.197 1.57 -0.308 -2.978 4.273 4.855 4.456 -1.53 0.3 -3.984 -3.81 -1.162 1.668 0.595 3.034 -1.162 0.228zm12.955 -11.185l1.176 -0.141 0.613 5.119c0.107,0.891 0.09,1.611 -0.047,2.159 -0.14,0.546 -0.452,1.017 -0.937,1.407 -0.487,0.391 -1.154,0.639 -2.008,0.741 -0.827,0.099 -1.523,0.038 -2.084,-0.186 -0.562,-0.224 -0.987,-0.591 -1.277,-1.107 -0.29,-0.516 -0.492,-1.243 -0.604,-2.182l-0.613 -5.118 1.176 -0.141 0.613 5.117c0.092,0.769 0.232,1.33 0.418,1.676 0.186,0.348 0.463,0.602 0.835,0.756 0.371,0.157 0.808,0.205 1.309,0.145 0.858,-0.103 1.447,-0.372 1.766,-0.806 0.318,-0.436 0.41,-1.208 0.277,-2.323l-0.613 -5.116zm4.151 8.522l-0.399 -8.918 1.183 -0.053 0.353 7.872 4.384 -0.197 0.047 1.046 -5.568 0.25zm7.178 -0.272l-0.178 -8.925 1.184 -0.024 0.178 8.925 -1.184 0.024zm3.255 -0.089l0.486 -8.914 1.212 0.066 4.295 7.252 0.381 -6.997 1.133 0.062 -0.486 8.914 -1.211 -0.067 -4.296 -7.251 -0.381 6.997 -1.133 -0.062zm9.029 0.519l1.149 -8.853 6.392 0.83 -0.135 1.038 -5.218 -0.677 -0.353 2.72 4.884 0.634 -0.135 1.039 -4.883 -0.634 -0.392 3.016 5.428 0.705 -0.135 1.039 -6.602 -0.857zm8.246 1.093l1.808 -8.742 3.874 0.801c0.779,0.161 1.355,0.363 1.728,0.603 0.372,0.241 0.638,0.584 0.798,1.031 0.161,0.447 0.19,0.911 0.09,1.392 -0.128,0.62 -0.437,1.101 -0.926,1.444 -0.489,0.342 -1.163,0.483 -2.025,0.426 0.277,0.21 0.478,0.404 0.607,0.579 0.274,0.38 0.514,0.834 0.716,1.362l1.02 2.693 -1.445 -0.298 -0.779 -2.058c-0.227,-0.597 -0.423,-1.055 -0.583,-1.379 -0.162,-0.324 -0.318,-0.558 -0.468,-0.706 -0.148,-0.145 -0.309,-0.259 -0.479,-0.341 -0.124,-0.053 -0.335,-0.111 -0.634,-0.173l-1.339 -0.277 -0.803 3.883 -1.16 -0.24zm2.17 -4.644l2.482 0.513c0.529,0.109 0.952,0.139 1.272,0.091 0.319,-0.046 0.581,-0.175 0.784,-0.385 0.204,-0.208 0.335,-0.453 0.394,-0.736 0.085,-0.413 0.007,-0.786 -0.237,-1.114 -0.244,-0.328 -0.689,-0.558 -1.334,-0.692l-2.763 -0.571 -0.598 2.894z"/>
   <g>
    <g>
     <path class="fil5" d="M44.723 54.035c0,0 2.659,4.579 0,12.224l17.838 0c0,0 -2.438,-7.09 -0.997,-11.522 0,0 7.09,1.662 8.198,-4.986 1.108,-6.648 -4.875,-7.645 -7.09,-7.202 0,0 0,-7.534 -8.421,-7.866 -8.42,-0.332 -8.642,6.869 -8.642,6.869 0,0 -7.312,0.406 -7.201,6.352 0.11,5.946 5.096,6.205 6.315,6.131z"/>
    </g>
    <g>
     <g>
      <path class="fil6" d="M47.973 64.406c2.659,-7.645 0,-12.224 0,-12.224 -1.219,0.074 -6.205,-0.185 -6.315,-6.131 -0.034,-1.802 0.616,-3.092 1.536,-4.02 -2.133,0.642 -4.962,2.195 -4.893,5.91 0.111,5.946 5.097,6.205 6.316,6.131 0,0 2.659,4.579 0,12.224l17.837 0c0,0 -0.254,-0.741 -0.549,-1.89l-13.932 0z"/>
     </g>
    </g>
    <g>
     <path class="fil7" d="M43.712 58.517c-0.474,0 -0.867,0.375 -0.885,0.853l-0.001 0.015c-0.018,0.489 0.363,0.901 0.852,0.92 0.012,0 0.023,0 0.035,0 0.473,0 0.865,-0.374 0.884,-0.85 0,-0.004 0.001,-0.008 0.001,-0.012 0,-0.002 0,-0.004 0,-0.007 0.018,-0.489 -0.363,-0.9 -0.852,-0.918 -0.012,-0.001 -0.023,-0.001 -0.034,-0.001zm16.557 -4.668l0 0c-0.001,0.001 -0.001,0.003 -0.002,0.004 0,0.001 0,0.001 0,0.002 -0.001,0.002 -0.002,0.005 -0.003,0.008 0,0.001 0,0.001 0,0.001 -0.001,0.002 -0.001,0.003 -0.002,0.005l0 0c0,0.001 0,0.003 -0.001,0.004 0,0 0,0.001 0,0.001 -0.001,0.002 -0.001,0.003 -0.002,0.004 0,0.001 0,0.001 0,0.001 0,0.001 -0.001,0.002 -0.001,0.004 0,0 0,0.001 -0.001,0.001 0,0.001 0,0.003 -0.001,0.004 0,0.001 0,0 0,0.001 0,0.001 -0.001,0.002 -0.001,0.004 0,0 0,0 -0.001,0.001 0,0.001 -0.001,0.003 -0.001,0.004 0,0 0,0 0,0.001 -0.001,0.001 -0.001,0.002 -0.001,0.003 0,0.001 0,0.001 -0.001,0.002 0,0.001 -0.001,0.002 -0.001,0.004 0,0 0,0 0,0 -0.001,0.002 -0.001,0.003 -0.001,0.004 -0.001,0 -0.001,0.001 -0.001,0.001 0,0.002 -0.001,0.003 -0.001,0.005 0,0 0,0 0,0 -0.001,0.001 -0.001,0.003 -0.001,0.004 -0.001,0 -0.001,0.001 -0.001,0.001 0,0.002 -0.001,0.003 -0.001,0.004 0,0.001 0,0.001 0,0.001 -0.001,0.001 -0.001,0.003 -0.002,0.004 0,0 0,0.001 0,0.001 0,0.001 -0.001,0.003 -0.001,0.004 0,0.001 0,0.001 0,0.001 -0.001,0.001 -0.001,0.002 -0.002,0.004 0,0 0,0.001 0,0.001 0,0.001 -0.001,0.003 -0.001,0.004 0,0.001 -0.001,0.001 -0.001,0.001 0,0.001 0,0.002 -0.001,0.003 0,0.001 0,0.001 0,0.002 0,0.001 -0.001,0.003 -0.001,0.004 -0.001,0.001 -0.001,0.001 -0.001,0.001 0,0.001 0,0.002 -0.001,0.003 0,0.001 0,0.001 0,0.002 -0.001,0.001 -0.001,0.002 -0.001,0.004 -0.001,0 -0.001,0.001 -0.001,0.001 0,0.001 0,0.002 -0.001,0.003 0,0.001 0,0.001 0,0.002 -0.001,0.001 -0.001,0.002 -0.001,0.004 -0.001,0 -0.001,0.001 -0.001,0.001 0,0.001 0,0.002 -0.001,0.003 0,0.001 0,0.001 0,0.002 -0.001,0.001 -0.001,0.002 -0.001,0.004 -0.001,0 -0.001,0.001 -0.001,0.001 0,0.001 0,0.002 -0.001,0.003 0,0.001 0,0.001 0,0.002 -0.001,0.001 -0.001,0.002 -0.001,0.003 -0.001,0.001 -0.001,0.001 -0.001,0.002 0,0.001 0,0.002 -0.001,0.003 0,0 0,0.001 0,0.001 -0.001,0.002 -0.001,0.003 -0.001,0.004 -0.001,0.001 -0.001,0.001 -0.001,0.002 0,0.001 0,0.002 -0.001,0.003 0,0 0,0.001 0,0.001 -0.001,0.002 -0.001,0.003 -0.001,0.004 0,0.001 -0.001,0.001 -0.001,0.002 0,0.001 0,0.002 -0.001,0.002 0,0.001 0,0.001 0,0.002 0,0.001 -0.001,0.003 -0.001,0.004 0,0.001 -0.001,0.001 -0.001,0.002 0,0.001 0,0.001 0,0.002 -0.001,0.001 -0.001,0.002 -0.001,0.003 0,0.001 -0.001,0.002 -0.001,0.003 0,0.001 -0.001,0.001 -0.001,0.002 0,0.001 0,0.001 0,0.002 -0.001,0.001 -0.001,0.002 -0.001,0.003 0,0.001 -0.001,0.002 -0.001,0.003 0,0 0,0.001 -0.001,0.002 0,0.001 0,0.001 0,0.002 -0.001,0.001 -0.001,0.003 -0.002,0.005 0,0 0,0 0,0.001 0,0 -0.001,0.001 -0.001,0.002 0,0.001 0,0.001 0,0.001 0,0.002 -0.001,0.004 -0.001,0.005 -0.001,0.001 -0.001,0.001 -0.001,0.001 0,0.001 0,0.002 -0.001,0.003 0,0.001 0,0.001 0,0.002 -0.001,0.001 -0.001,0.003 -0.001,0.004 -0.001,0.001 -0.001,0.001 -0.001,0.001 0,0.001 0,0.002 0,0.003 -0.001,0.001 -0.001,0.001 -0.001,0.002 0,0.001 -0.001,0.003 -0.001,0.004 0,0 -0.001,0.001 -0.001,0.001 0,0.001 0,0.002 0,0.003 -0.001,0 -0.001,0.001 -0.001,0.002 0,0.001 -0.001,0.002 -0.001,0.003 0,0.001 0,0.002 -0.001,0.002 0,0.001 0,0.002 0,0.003 0,0.001 0,0.001 -0.001,0.001 0,0.002 -0.001,0.004 -0.001,0.005 0,0.001 0,0.001 0,0.001 -0.001,0.001 -0.001,0.002 -0.001,0.003 0,0 0,0.001 0,0.001 -0.001,0.002 -0.002,0.004 -0.002,0.006 0,0 0,0 0,0 0,0.001 -0.001,0.002 -0.001,0.003 0,0 0,0.001 0,0.001 -0.001,0.002 -0.001,0.004 -0.002,0.005 0,0 0,0.001 0,0.001 0,0.001 -0.001,0.002 -0.001,0.003 0,0 0,0.001 0,0.001 -0.001,0.002 -0.001,0.003 -0.002,0.005 0,0 0,0.001 0,0.001 0,0.001 0,0.002 -0.001,0.003 0,0 0,0.001 0,0.001 0,0.002 -0.001,0.004 -0.001,0.005 0,0.001 -0.001,0.001 -0.001,0.001 0,0.001 0,0.002 0,0.003 -0.001,0 -0.001,0.001 -0.001,0.001 0,0.002 -0.001,0.004 -0.001,0.005 0,0.001 0,0.001 0,0.001 -0.001,0.001 -0.001,0.002 -0.001,0.003 0,0.001 0,0.001 -0.001,0.001 0,0.002 -0.001,0.004 -0.001,0.006l0 0c0,0.001 -0.001,0.002 -0.001,0.003 0,0 0,0.001 0,0.001 -0.001,0.002 -0.001,0.004 -0.002,0.006 0,0 0,0 0,0 0,0.001 -0.001,0.002 -0.001,0.003l0 0.001c0,0.002 -0.001,0.004 -0.001,0.005 -0.001,0.001 -0.001,0.001 -0.001,0.001 0,0.001 0,0.002 -0.001,0.003 0,0 0,0.001 0,0.001 0,0.002 -0.001,0.004 -0.001,0.006l0 0c-0.001,0.003 -0.002,0.007 -0.003,0.01l0 0c-0.001,0.001 -0.001,0.002 -0.001,0.003 0,0.001 0,0 0,0 -0.003,0.009 -0.005,0.018 -0.007,0.027l0 0c-0.411,1.537 -0.405,3.343 -0.222,5.047 0.001,0.001 0.001,0.001 0.001,0.002 0,0.002 0,0.004 0,0.006 0,0 0,0 0,0 0.001,0.002 0.001,0.003 0.001,0.004 0,0 0,0 0,0 0,0.004 0.001,0.007 0.001,0.011 0,0 0,0 0,0 0.001,0.008 0.002,0.015 0.002,0.023 0.001,0.001 0.001,0.004 0.001,0.005 0,0.001 0,0.002 0,0.002 0,0.002 0,0.002 0.001,0.003 0,0.001 0,0.001 0,0.001 0,0.002 0,0.005 0,0.006l0 0.001c0.001,0.001 0.001,0.002 0.001,0.003 0,0.001 0,0.001 0,0.002 0,0.002 0,0.004 0.001,0.006l0 0c0,0.001 0,0.003 0,0.004l0 0c0,0.004 0.001,0.007 0.001,0.011 0,0 0.001,0.001 0.001,0.001 0,0.002 0,0.003 0,0.005 0,0.001 0,0.001 0,0.002 0,0.001 0,0.002 0.001,0.003 0,0 0,0 0,0.001 0,0.002 0,0.003 0,0.005 0,0.001 0,0.002 0,0.002 0.001,0.001 0.001,0.002 0.001,0.003 0,0 0,0.001 0,0.002 0,0.001 0,0.003 0.001,0.005 0,0 0,0.001 0,0.001 0,0.001 0,0.002 0,0.003 0,0 0,0.001 0,0.002 0.001,0.003 0.001,0.006 0.001,0.009 0,0.001 0,0.001 0,0.001 0.001,0.002 0.001,0.004 0.001,0.006 0,0 0,0.001 0,0.001 0,0.001 0,0.002 0.001,0.003 0,0.001 0,0.001 0,0.002 0,0.002 0,0.003 0,0.005 0,0 0,0.001 0.001,0.001 0,0.002 0,0.002 0,0.003 0,0.001 0,0.002 0,0.002 0,0.002 0,0.003 0.001,0.005 0,0 0,0.001 0,0.002 0,0.001 0,0.002 0,0.002 0,0.001 0,0.003 0,0.004 0.001,0.001 0.001,0.001 0.001,0.002 0,0.001 0,0.002 0,0.003 0,0.001 0,0.002 0,0.002 0.001,0.002 0.001,0.003 0.001,0.005 0,0 0,0.001 0,0.001 0,0.001 0,0.002 0,0.004 0.001,0 0.001,0.001 0.001,0.001 0,0.001 0,0.002 0,0.003 0,0.002 0,0.003 0,0.004 0.001,0.001 0.001,0.002 0.001,0.002 0,0.001 0,0.002 0,0.002 0,0.002 0,0.003 0,0.004 0,0.001 0.001,0.002 0.001,0.003 0,0.001 0,0.002 0,0.003 0,0 0,0.001 0,0.002 0,0.001 0,0.002 0.001,0.003 0,0.001 0,0.002 0,0.003 0,0.001 0,0.002 0,0.003 0,0 0,0.001 0.001,0.002 0,0.001 0,0.003 0,0.004 0,0 0,0.001 0,0.001 0,0.002 0.001,0.003 0.001,0.005 0,0 0,0 0,0.001 0,0.001 0,0.003 0,0.004 0,0.001 0,0.001 0,0.002 0.001,0.001 0.001,0.002 0.001,0.004 0,0 0,0 0,0.001 0,0.001 0,0.003 0.001,0.004 0,0.001 0,0.001 0,0.002 0,0.001 0,0.002 0,0.004 0,0 0,0.001 0,0.001 0.001,0.001 0.001,0.003 0.001,0.005 0,0 0,0.001 0,0.001 0,0.001 0,0.003 0.001,0.003 0,0.001 0,0.002 0,0.002 0,0.001 0,0.003 0,0.005 0,0 0,0.001 0.001,0.001 0,0.001 0,0.003 0,0.004 0,0 0,0.001 0,0.001 0,0.002 0,0.003 0.001,0.005 0,0 0,0.001 0,0.002 0,0.001 0,0.002 0,0.003 0,0 0,0.001 0,0.001 0.001,0.002 0.001,0.003 0.001,0.005l0 0.001c0,0.001 0.001,0.003 0.001,0.005l0 0c0,0.002 0,0.004 0,0.005l0 0.001c0.001,0.001 0.001,0.003 0.001,0.005 0,0.002 0,0.004 0.001,0.005 0,0 0,0.001 0,0.001 0,0.002 0,0.003 0,0.005 0.001,0.002 0.001,0.004 0.001,0.006l0 0c0,0.001 0,0.003 0.001,0.005l0 0c0,0.002 0,0.004 0,0.005 0.001,0.001 0.001,0.001 0.001,0.002 0,0.001 0,0.003 0,0.004 0,0.002 0.001,0.004 0.001,0.006 0,0 0,0 0,0.001 0,0.001 0,0.002 0,0.004l0 0.001c0.001,0.001 0.001,0.003 0.001,0.005 0,0 0,0 0,0.001 0.001,0.003 0.001,0.006 0.001,0.01 0,0 0,0 0.001,0.001 0,0.003 0,0.006 0.001,0.01 0,0 0,0.001 0,0.001 0,0.002 0,0.003 0.001,0.005l0 0c0,0.001 0,0.003 0,0.005 0,0 0,0.001 0,0.001 0.001,0.004 0.001,0.007 0.002,0.01 0,0.001 0,0 0,0.001 0.001,0.007 0.002,0.014 0.002,0.021 0.001,0.001 0,0 0.001,0.001 0.228,1.811 0.637,3.469 0.933,4.517 0,0.002 0.001,0.005 0.002,0.007 0,0.002 0.001,0.005 0.002,0.007 0.071,0.251 0.135,0.467 0.188,0.64 0.092,0.3 0.151,0.474 0.157,0.491l-17.838 0c0.001,-0.004 0.002,-0.007 0.004,-0.01 0,-0.001 0,-0.002 0,-0.002 0.001,-0.003 0.002,-0.007 0.004,-0.01 0,-0.001 0,-0.002 0.001,-0.002 0,-0.003 0.001,-0.005 0.002,-0.008 0,-0.001 0.001,-0.002 0.001,-0.002 0.001,-0.004 0.002,-0.006 0.003,-0.009 0,-0.001 0.001,-0.002 0.001,-0.004 0.001,-0.002 0.002,-0.005 0.003,-0.008 0,-0.001 0.001,-0.002 0.001,-0.004 0.001,-0.002 0.002,-0.004 0.003,-0.006 0,-0.001 0,-0.002 0.001,-0.003 0.001,-0.003 0.002,-0.006 0.003,-0.009 0,-0.001 0,-0.002 0.001,-0.004 0.001,-0.002 0.002,-0.005 0.002,-0.006 0.001,-0.002 0.001,-0.004 0.002,-0.006 0.001,-0.002 0.001,-0.003 0.002,-0.005 0,-0.002 0.001,-0.003 0.001,-0.004 0.001,-0.003 0.002,-0.005 0.003,-0.008 0,-0.002 0.001,-0.003 0.002,-0.005 0,-0.001 0.001,-0.003 0.001,-0.005 0.001,-0.002 0.002,-0.004 0.003,-0.007 0,-0.001 0.001,-0.003 0.001,-0.004 0.001,-0.002 0.001,-0.004 0.002,-0.006 0.001,-0.002 0.002,-0.004 0.002,-0.007 0.001,-0.001 0.002,-0.003 0.002,-0.005 0.001,-0.001 0.001,-0.002 0.001,-0.003 0.002,-0.004 0.003,-0.007 0.004,-0.01 0,-0.001 0,-0.001 0.001,-0.002 0,-0.003 0.001,-0.005 0.002,-0.007 0,0 0,-0.001 0,-0.001 0.001,-0.004 0.003,-0.007 0.004,-0.011 0,-0.001 0,-0.002 0.001,-0.003 0.001,-0.003 0.002,-0.007 0.003,-0.011 0.001,0 0.001,-0.001 0.001,-0.001 0.001,-0.002 0.001,-0.004 0.002,-0.007 0,0 0,0 0,-0.001 0.002,-0.004 0.003,-0.008 0.005,-0.012 0,-0.001 0,0 0,-0.001 0.002,-0.006 0.004,-0.013 0.007,-0.02l0 0c0.001,-0.004 0.003,-0.009 0.004,-0.013 0,0 0,0 0,-0.001 0.003,-0.006 0.005,-0.013 0.007,-0.02 0,0 0,0.001 0,0 0.099,-0.296 0.19,-0.587 0.274,-0.873l0 0c0.003,-0.011 0.006,-0.022 0.009,-0.033l0 0c0.002,-0.006 0.004,-0.013 0.006,-0.019l0 -0.001c0.001,-0.004 0.002,-0.008 0.003,-0.012 0,0 0.001,-0.001 0.001,-0.001 0.002,-0.006 0.003,-0.012 0.005,-0.019 0,0 0,-0.001 0,-0.001 0.002,-0.004 0.003,-0.008 0.004,-0.011 0,-0.001 0,-0.001 0,-0.002 0.002,-0.006 0.004,-0.012 0.005,-0.018 0.001,-0.001 0.001,-0.001 0.001,-0.002 0.001,-0.003 0.002,-0.007 0.003,-0.011 0,0 0,-0.001 0,-0.001 0.001,-0.002 0.002,-0.004 0.002,-0.006 0,-0.001 0,0 0,-0.001 0.001,-0.004 0.002,-0.008 0.004,-0.011 0,-0.001 0,-0.002 0,-0.002 0.001,-0.004 0.002,-0.008 0.003,-0.011 0,0 0,-0.001 0.001,-0.002 0,-0.001 0.001,-0.003 0.001,-0.005 0.001,-0.001 0.001,-0.002 0.001,-0.003 0.001,-0.003 0.002,-0.006 0.002,-0.009 0.001,-0.001 0.001,-0.002 0.002,-0.003 0,-0.002 0,-0.004 0.001,-0.005 0.001,-0.003 0.001,-0.005 0.002,-0.007 0,-0.002 0.001,-0.003 0.001,-0.005 0.001,-0.001 0.001,-0.003 0.001,-0.004 0.001,-0.003 0.002,-0.005 0.002,-0.007 0.001,-0.002 0.001,-0.004 0.002,-0.005 0,-0.001 0.001,-0.003 0.001,-0.004 0.001,-0.003 0.001,-0.005 0.002,-0.008 0,-0.001 0.001,-0.002 0.001,-0.004 0.001,-0.002 0.001,-0.003 0.002,-0.005 0,-0.002 0.001,-0.004 0.001,-0.005 0,-0.002 0.001,-0.005 0.002,-0.006 0,-0.002 0.001,-0.003 0.001,-0.004 0.001,-0.003 0.001,-0.005 0.002,-0.008 0,-0.001 0.001,-0.002 0.001,-0.004 0,-0.002 0.001,-0.003 0.002,-0.005 0,-0.001 0,-0.003 0.001,-0.004 0,-0.002 0.001,-0.005 0.002,-0.007 0,-0.002 0,-0.003 0.001,-0.004 0,-0.002 0.001,-0.005 0.001,-0.007 0.001,-0.001 0.001,-0.003 0.002,-0.004 0,-0.002 0.001,-0.004 0.001,-0.006 0.001,-0.001 0.001,-0.003 0.001,-0.004 0.001,-0.003 0.002,-0.005 0.003,-0.008 0,-0.001 0,-0.002 0.001,-0.003 0,-0.002 0.001,-0.005 0.001,-0.007 0.001,-0.001 0.001,-0.002 0.001,-0.003 0.001,-0.003 0.001,-0.005 0.002,-0.007 0.001,-0.002 0.001,-0.003 0.001,-0.004 0.001,-0.002 0.002,-0.005 0.002,-0.008 0.001,-0.001 0.001,-0.002 0.001,-0.003 0.001,-0.002 0.001,-0.004 0.002,-0.006 0,-0.001 0.001,-0.002 0.001,-0.003 0.001,-0.003 0.001,-0.006 0.002,-0.008 0,-0.001 0.001,-0.002 0.001,-0.004 0.001,-0.003 0.001,-0.005 0.002,-0.008 0,-0.001 0.001,-0.001 0.001,-0.002 0.001,-0.003 0.001,-0.005 0.002,-0.007 0,-0.001 0,-0.002 0.001,-0.003 0,-0.003 0.001,-0.006 0.002,-0.008 0,-0.001 0,-0.002 0,-0.003 0.001,-0.003 0.002,-0.006 0.003,-0.009 0,0 0,-0.001 0,-0.001 0.001,-0.003 0.002,-0.006 0.002,-0.009 0.001,0 0.001,-0.001 0.001,-0.002 0.001,-0.002 0.002,-0.006 0.003,-0.009 0,0 0,-0.001 0,-0.002 0.001,-0.002 0.002,-0.006 0.002,-0.008 0,-0.001 0.001,-0.001 0.001,-0.001 0.001,-0.003 0.001,-0.006 0.002,-0.009 0,-0.001 0,-0.002 0.001,-0.003 0,-0.002 0.001,-0.006 0.002,-0.008 0,-0.001 0,-0.002 0.001,-0.002 0,-0.003 0.001,-0.006 0.002,-0.009 0,0 0,0 0,-0.001 0.001,-0.003 0.002,-0.006 0.003,-0.009 0,-0.001 0,-0.001 0,-0.002 0.001,-0.003 0.002,-0.006 0.003,-0.009 0,-0.001 0,-0.001 0,-0.001 0.001,-0.003 0.002,-0.007 0.002,-0.009 0,-0.001 0.001,-0.001 0.001,-0.001 0,-0.004 0.001,-0.007 0.002,-0.01 0,0 0,-0.001 0.001,-0.002 0,-0.003 0.001,-0.006 0.002,-0.009l0 -0.001c0.001,-0.003 0.002,-0.006 0.003,-0.009 0,0 0,-0.001 0,-0.001 0.001,-0.004 0.002,-0.006 0.002,-0.01 0.001,0 0.001,0 0.001,-0.001 0.002,-0.007 0.003,-0.013 0.005,-0.02 0,0 0,0 0,0 0.001,-0.004 0.002,-0.007 0.003,-0.011l0 0c0.002,-0.007 0.004,-0.013 0.005,-0.02l0 -0.001c0.003,-0.01 0.006,-0.021 0.009,-0.031l0 0c0.081,-0.314 0.154,-0.622 0.218,-0.923l0 0c0.001,-0.004 0.002,-0.007 0.002,-0.01l0 0c0.002,-0.007 0.003,-0.014 0.005,-0.02 0,0 0,-0.001 0,-0.001 0,-0.003 0.001,-0.006 0.002,-0.009 0,-0.001 0,-0.001 0,-0.001 0.001,-0.003 0.001,-0.006 0.002,-0.009l0 -0.001c0,-0.002 0.001,-0.006 0.002,-0.009 0,0 0,-0.001 0,-0.001 0.001,-0.003 0.001,-0.006 0.002,-0.009 0,-0.001 0,-0.001 0,-0.002 0.001,-0.002 0.002,-0.005 0.002,-0.008 0,0 0,0 0,-0.001 0.001,-0.003 0.001,-0.006 0.002,-0.009 0,0 0,-0.001 0.001,-0.002 0,-0.003 0.001,-0.005 0.001,-0.008 0,-0.001 0.001,-0.001 0.001,-0.002 0,-0.002 0.001,-0.005 0.001,-0.007 0,-0.001 0.001,-0.002 0.001,-0.002 0,-0.003 0.001,-0.006 0.001,-0.008 0,-0.001 0.001,-0.002 0.001,-0.003 0,-0.003 0.001,-0.005 0.001,-0.007 0,-0.001 0.001,-0.002 0.001,-0.004 0,-0.001 0.001,-0.004 0.001,-0.006 0.001,-0.001 0.001,-0.002 0.001,-0.003 0,-0.002 0.001,-0.005 0.001,-0.007 0.001,-0.001 0.001,-0.003 0.001,-0.004 0,-0.002 0.001,-0.003 0.001,-0.005 0.001,-0.002 0.001,-0.004 0.001,-0.005 0.001,-0.002 0.001,-0.003 0.001,-0.005 0.001,-0.002 0.001,-0.003 0.001,-0.005 0.001,-0.001 0.001,-0.003 0.001,-0.005 0.001,-0.002 0.001,-0.004 0.002,-0.006 0,-0.001 0,-0.002 0,-0.003 0.001,-0.003 0.001,-0.007 0.002,-0.01 0,0 0,0 0,-0.001 0.001,-0.002 0.001,-0.003 0.001,-0.005 0.001,-0.001 0.001,-0.001 0.001,-0.001 0,-0.004 0.001,-0.007 0.002,-0.011 0,0 0,-0.001 0,-0.001 0.025,-0.124 0.049,-0.246 0.071,-0.367 0.088,-0.482 -0.231,-0.944 -0.713,-1.032 -0.054,-0.01 -0.107,-0.014 -0.16,-0.014 -0.42,0 -0.793,0.299 -0.871,0.727 -0.18,0.986 -0.451,2.002 -0.805,3.019 -0.189,0.542 -0.103,1.142 0.229,1.61 0.333,0.468 0.871,0.745 1.445,0.745l17.838 0c0.573,0 1.11,-0.276 1.443,-0.743 0.333,-0.466 0.419,-1.064 0.233,-1.605 -0.001,-0.003 -0.134,-0.395 -0.315,-1.035 -0.001,-0.003 -0.001,-0.005 -0.002,-0.008 -0.001,-0.002 -0.001,-0.004 -0.002,-0.007 -0.441,-1.564 -1.305,-5.122 -0.965,-7.95 0.157,0.007 0.32,0.01 0.49,0.01 0.223,0 0.446,-0.006 0.664,-0.019 0.489,-0.029 0.862,-0.449 0.832,-0.938 -0.028,-0.47 -0.418,-0.833 -0.884,-0.833 -0.017,0 -0.034,0 -0.051,0.001 -0.151,0.009 -0.299,0.014 -0.442,0.016 0,0 0,0 0,0 -0.006,0 -0.012,0 -0.017,0 0,0 -0.001,0 -0.001,0 -0.002,0 -0.005,0 -0.008,0l0 0c-0.001,0 -0.003,0 -0.004,0 0,0 0,0 0,0 -0.002,0 -0.003,0 -0.004,0 0,0 0,0 -0.001,0 -0.002,0 -0.005,0 -0.008,0 0,0 0,0 0,0 -0.002,0 -0.002,0 -0.004,0 0,0 0,0 0,0 -0.002,0 -0.003,0 -0.004,0 -0.001,0 -0.001,0 -0.001,0 -0.001,0 -0.002,0 -0.003,0l-0.001 0c-0.001,0 -0.002,0 -0.003,0 -0.001,0 -0.001,0 -0.001,0 -0.003,0 -0.005,0.001 -0.008,0.001 0,0 -0.001,0 -0.001,0 -0.001,0 -0.002,0 -0.003,0 0,0 -0.001,0 -0.001,0 -0.001,0 -0.002,0 -0.003,0l-0.001 0c-0.001,0 -0.003,0 -0.004,0 0,0 0,0 0,0 -0.001,0 -0.002,0 -0.003,0 -0.001,0 -0.001,0 -0.002,0 -0.001,0 -0.002,0 -0.003,0 0,0 0,0 -0.001,0 -0.001,0 -0.002,0 -0.004,0l0 0c-0.001,0 -0.002,0 -0.003,0 -0.001,0 -0.001,0 -0.002,0 0,0 -0.001,0 -0.002,0 -0.001,0 -0.001,0 -0.001,0 -0.002,0 -0.003,0 -0.004,0 0,0 0,0 -0.001,0 -0.001,0 -0.002,0 -0.003,0 0,0 -0.001,0 -0.001,0 -0.001,0 -0.002,0 -0.003,0 0,0 -0.001,0 -0.001,0 -0.001,0 -0.003,0 -0.004,0 -1.091,0 -1.879,-0.185 -1.879,-0.185zm6.288 -1.026l0 0c-0.17,0 -0.342,0.049 -0.494,0.151 -0.005,0.003 -0.01,0.006 -0.014,0.009 -0.406,0.274 -0.514,0.825 -0.241,1.231 0.17,0.255 0.45,0.392 0.735,0.392 0.17,0 0.342,-0.049 0.494,-0.151l0.018 -0.012c0.406,-0.273 0.513,-0.824 0.239,-1.23 -0.172,-0.253 -0.452,-0.39 -0.737,-0.39zm-14.158 -20.812l0 0c-4.895,0 -7.331,2.337 -8.513,4.298 -0.607,1.007 -0.94,2.005 -1.123,2.787 -0.784,0.156 -1.798,0.426 -2.812,0.895 -2.999,1.386 -4.637,3.86 -4.612,6.965 0,0.002 0,0.005 0,0.007 0,0.005 0,0.009 0,0.013l0.001 0.074c0.1,5.34 3.605,7.516 6.903,7.837 0.12,0.353 0.25,0.811 0.358,1.365 0.082,0.423 0.453,0.717 0.869,0.717 0.056,0 0.113,-0.005 0.17,-0.016 0.48,-0.093 0.793,-0.558 0.701,-1.037 -0.037,-0.19 -0.076,-0.37 -0.116,-0.541l-0.001 -0.001c0,-0.001 0,-0.002 -0.001,-0.004 0,0 0,-0.001 0,-0.001 0,-0.001 -0.001,-0.003 -0.001,-0.004 0,0 0,-0.001 0,-0.001 0,-0.001 -0.001,-0.003 -0.001,-0.004 0,0 0,-0.001 0,-0.001 -0.001,-0.003 -0.002,-0.006 -0.003,-0.01 0,0 0,-0.001 0,-0.001 0,-0.001 0,-0.002 -0.001,-0.004 0,0 0,-0.001 0,-0.001 0,-0.001 0,-0.002 -0.001,-0.003 0,-0.001 0,-0.002 0,-0.002 0,-0.001 -0.001,-0.002 -0.001,-0.003 0,-0.001 0,-0.001 -0.001,-0.002 0,-0.001 0,-0.002 0,-0.003 0,0 0,-0.001 -0.001,-0.002 0,-0.001 0,-0.002 0,-0.002 -0.001,-0.002 -0.001,-0.003 -0.001,-0.005 0,-0.001 -0.001,-0.001 -0.001,-0.002 0,-0.001 0,-0.001 0,-0.002 -0.001,-0.001 -0.001,-0.002 -0.001,-0.003 0,-0.001 0,-0.001 -0.001,-0.002 0,-0.001 0,-0.002 0,-0.003 0,0 -0.001,-0.001 -0.001,-0.002 0,-0.001 0,-0.002 0,-0.002 0,-0.001 -0.001,-0.002 -0.001,-0.002 0,-0.001 0,-0.002 0,-0.003 -0.001,-0.001 -0.001,-0.002 -0.001,-0.002 0,-0.002 -0.001,-0.003 -0.001,-0.005 0,-0.001 -0.001,-0.002 -0.001,-0.003 0,0 0,0 0,-0.001 0,-0.001 -0.001,-0.002 -0.001,-0.003 0,-0.001 0,-0.001 0,-0.002 -0.001,-0.001 -0.001,-0.002 -0.001,-0.003 0,0 0,-0.001 0,-0.001 -0.001,-0.001 -0.001,-0.002 -0.001,-0.003 0,-0.001 -0.001,-0.002 -0.001,-0.002 0,-0.001 0,-0.002 0,-0.003 0,-0.001 0,-0.001 -0.001,-0.001 -0.001,-0.005 -0.002,-0.011 -0.004,-0.016 0,-0.002 0,-0.003 -0.001,-0.004 0,0 0,-0.001 0,-0.001 -0.002,-0.008 -0.004,-0.017 -0.006,-0.025l0 0c-0.22,-0.879 -0.475,-1.492 -0.626,-1.815l-0.001 0c-0.001,-0.003 -0.002,-0.006 -0.004,-0.009 0,0 0,0 0,-0.001 0,0 0,0 0,0 0,0 -0.001,-0.001 -0.001,-0.001 0,0 0,0 0,-0.001 0,0 -0.001,-0.001 -0.001,-0.001l0 0c-0.001,-0.002 -0.002,-0.004 -0.002,-0.005l-0.001 -0.001c-0.073,-0.156 -0.121,-0.238 -0.124,-0.243l0 0 0 -0.001c-0.086,0.006 -0.191,0.009 -0.312,0.009 -1.588,0 -5.9,-0.614 -6.003,-6.139 0,-0.002 0,-0.003 0,-0.005 -0.001,-0.016 -0.001,-0.032 -0.001,-0.047 0,-0.003 0,-0.005 0,-0.008 0,-0.002 0,-0.004 0,-0.006 0,-0.003 0,-0.007 0,-0.01 -0.006,-0.666 0.083,-1.262 0.244,-1.795l0 0c0.001,-0.004 0.003,-0.009 0.004,-0.013l0 -0.001c0.001,-0.001 0.001,-0.002 0.001,-0.003l0 0c0.001,-0.001 0.001,-0.002 0.001,-0.003l0 0c0.001,-0.001 0.001,-0.003 0.001,-0.004l0 0c0.001,-0.001 0.001,-0.002 0.001,-0.003l0 0c0.001,-0.001 0.001,-0.002 0.001,-0.003l0.001 -0.001c0,-0.001 0,-0.002 0,-0.003l0.001 0c0,-0.001 0,-0.002 0,-0.003l0.001 -0.001c0,-0.001 0,-0.002 0.001,-0.003l0 0c0,-0.001 0,-0.002 0.001,-0.003 0,-0.002 0,-0.003 0.001,-0.004l0 0c0,-0.001 0,-0.002 0.001,-0.003l0 0c0,-0.001 0,-0.002 0.001,-0.003l0 -0.001c0,-0.001 0.001,-0.002 0.001,-0.003l0 0c0,-0.001 0.001,-0.002 0.001,-0.003l0 -0.001c0,-0.001 0.001,-0.002 0.001,-0.003l0 0c0,-0.001 0.001,-0.002 0.001,-0.003l0 -0.001c0.001,-0.001 0.001,-0.002 0.001,-0.002l0 -0.001c0.001,-0.001 0.001,-0.002 0.001,-0.003l0.001 0c0,-0.001 0,-0.002 0,-0.003l0.001 -0.001c0,-0.001 0,-0.002 0,-0.003 0,0 0.001,0 0.001,0 0,-0.001 0,-0.002 0.001,-0.003 0,0 0,-0.001 0,-0.001 0,-0.001 0,-0.001 0.001,-0.002 0,0 0,-0.001 0,-0.001 0,-0.001 0,-0.002 0.001,-0.003 0,0 0,0 0,0 0,-0.002 0,-0.002 0.001,-0.003 0,0 0,-0.001 0,-0.001 0,-0.001 0,-0.001 0.001,-0.002 0,-0.001 0,-0.001 0,-0.001 0.001,-0.001 0.001,-0.002 0.001,-0.003 0,0 0,0 0,-0.001 0.001,-0.001 0.001,-0.001 0.001,-0.002 0,0 0,-0.001 0,-0.001 0.001,-0.001 0.001,-0.002 0.001,-0.002 0,-0.001 0,-0.001 0.001,-0.002 0,0 0,-0.001 0,-0.002 0,0 0,-0.001 0.001,-0.001 0,-0.001 0,-0.002 0,-0.002 0.001,-0.001 0.001,-0.001 0.001,-0.001 0,-0.001 0,-0.002 0.001,-0.003 0,0 0,-0.001 0,-0.001 0,-0.001 0,-0.001 0.001,-0.002 0,0 0,-0.001 0,-0.001 0,-0.001 0.001,-0.002 0.001,-0.003 0,0 0,0 0,-0.001 0,0 0.001,-0.001 0.001,-0.002 0,0 0,-0.001 0,-0.001 0.001,-0.001 0.001,-0.002 0.001,-0.002 0,-0.001 0,-0.001 0,-0.001 0.001,-0.001 0.001,-0.002 0.001,-0.003 0,0 0,-0.001 0,-0.001 0.001,-0.001 0.001,-0.001 0.001,-0.002 0,0 0,-0.001 0.001,-0.001 0,-0.001 0,-0.002 0,-0.002 0,-0.001 0.001,-0.001 0.001,-0.002 0,0 0,-0.001 0.001,-0.002 0,0 0,-0.001 0,-0.001 0,-0.001 0,-0.001 0.001,-0.002 0,0 0,-0.001 0,-0.001 0,-0.001 0,-0.002 0.001,-0.002 0,-0.001 0,-0.001 0,-0.001 0,-0.001 0.001,-0.002 0.001,-0.003 0,0 0,-0.001 0,-0.001 0.001,-0.001 0.001,-0.002 0.001,-0.002 0,-0.001 0,-0.001 0,-0.001 0.001,-0.001 0.001,-0.002 0.001,-0.003 0,0 0,0 0.001,-0.001 0,0 0,-0.001 0,-0.002 0,0 0.001,-0.001 0.001,-0.001 0,-0.001 0,-0.002 0,-0.002 0,0 0.001,-0.001 0.001,-0.002 0,0 0,-0.001 0.001,-0.002 0,0 0,-0.001 0,-0.001 0,0 0,-0.001 0.001,-0.002 0,0 0,-0.001 0,-0.001 0,-0.001 0.001,-0.002 0.001,-0.002 0,-0.001 0,-0.001 0,-0.002 0,0 0.001,-0.001 0.001,-0.002 0,0 0,-0.001 0,-0.001 0.001,-0.001 0.001,-0.002 0.001,-0.002 0,0 0.001,-0.001 0.001,-0.001 0,-0.001 0,-0.001 0,-0.002 0,-0.001 0.001,-0.001 0.001,-0.002 0,0 0,-0.001 0,-0.001 0.001,-0.001 0.001,-0.001 0.001,-0.002 0,-0.001 0,-0.001 0,-0.002 0.001,0 0.001,-0.001 0.001,-0.001 0,-0.001 0,-0.001 0.001,-0.002 0,-0.001 0,-0.001 0,-0.002 0,0 0.001,-0.001 0.001,-0.001 0,-0.001 0,-0.001 0,-0.002 0.001,-0.001 0.001,-0.001 0.001,-0.001 0,-0.001 0,-0.002 0.001,-0.003 0,0 0,0 0,-0.001 0,0 0,-0.001 0.001,-0.002 0,0 0,0 0,-0.001 0,-0.001 0.001,-0.001 0.001,-0.002 0,-0.001 0,-0.001 0,-0.001 0.001,-0.001 0.001,-0.002 0.001,-0.003 0,0 0,0 0,0 0.001,-0.001 0.001,-0.002 0.001,-0.003 0,0 0,0 0,0 0.001,-0.002 0.001,-0.002 0.001,-0.003 0,0 0,-0.001 0,-0.001 0.001,-0.001 0.001,-0.002 0.002,-0.003 0,0 0,0 0,-0.001 0,0 0.001,-0.001 0.001,-0.002l0 0c0,-0.001 0.001,-0.002 0.001,-0.003 0,0 0,-0.001 0,-0.001 0,-0.001 0.001,-0.002 0.001,-0.003 0,0 0,0 0,-0.001 0.001,0 0.001,-0.001 0.001,-0.002 0,0 0.001,-0.001 0.001,-0.001 0,0 0,-0.002 0.001,-0.002l0 0c0,-0.001 0,-0.003 0.001,-0.004 0,0 0,0 0,-0.001 0,0 0.001,-0.001 0.001,-0.002 0,0 0,0 0,-0.001 0,-0.001 0.001,-0.001 0.001,-0.002 0,0 0,-0.001 0,-0.001 0.001,-0.002 0.002,-0.004 0.002,-0.006 0,0 0.001,0 0.001,-0.001 0,-0.001 0,-0.001 0.001,-0.002 0,0 0,-0.001 0,-0.001 0,0 0,-0.002 0.001,-0.002 0,-0.001 0,-0.001 0,-0.001 0.001,-0.002 0.002,-0.004 0.002,-0.006 0.001,-0.002 0.002,-0.004 0.003,-0.007l0 0c0.499,-1.366 1.492,-2.291 2.571,-2.916 0,0 0.001,0 0.001,0 0.001,-0.001 0.001,-0.001 0.002,-0.001l0 0c0.006,-0.004 0.012,-0.008 0.018,-0.011l0 0c0.005,-0.003 0.009,-0.005 0.013,-0.008 0.002,0 0.004,-0.001 0.005,-0.002 0,0 0.001,-0.001 0.001,-0.001 0,0 0.001,0 0.002,-0.001 0,0 0,0 0.001,0 0,-0.001 0.001,-0.001 0.001,-0.001l0.001 0c0.001,-0.001 0.001,-0.001 0.002,-0.002l0 0c0.001,0 0.002,-0.001 0.003,-0.001 0,0 0,0 0,-0.001 0.001,0 0.002,0 0.002,-0.001 0,0 0.001,0 0.001,0 0.001,0 0.001,-0.001 0.002,-0.001 0,0 0,0 0,0 0.002,-0.002 0.004,-0.002 0.005,-0.003 0,0 0.001,0 0.001,0 0,-0.001 0.001,-0.001 0.002,-0.002 0,0 0,0 0,0 0.001,0 0.002,-0.001 0.002,-0.001 0.001,0 0.001,0 0.001,0 0.001,-0.001 0.001,-0.001 0.002,-0.002 0,0 0,0 0,0 0.001,0 0.002,-0.001 0.003,-0.001 0,0 0,0 0,0 0.001,-0.001 0.001,-0.001 0.002,-0.001 0,-0.001 0.001,-0.001 0.001,-0.001 0.001,0 0.001,-0.001 0.002,-0.001 0,0 0,0 0,0 0.001,-0.001 0.002,-0.001 0.002,-0.001 0.001,-0.001 0.001,-0.001 0.001,-0.001 0.001,0 0.001,-0.001 0.002,-0.001 0,0 0,0 0.001,0 0,-0.001 0.001,-0.001 0.001,-0.001 0.001,0 0.001,-0.001 0.001,-0.001 0.001,0 0.001,0 0.002,-0.001 0,0 0.001,0 0.001,0 0.001,-0.001 0.001,-0.001 0.002,-0.001 0,-0.001 0,-0.001 0,-0.001 0.001,0 0.002,0 0.003,-0.001 0,0 0,0 0,0 0.001,-0.001 0.001,-0.001 0.002,-0.001 0,0 0,0 0.001,-0.001 0,0 0.001,-0.001 0.002,-0.001l0 0c0.001,0 0.002,-0.001 0.003,-0.001l0 -0.001c0,0 0.002,0 0.002,-0.001l0 0c0.001,0 0.002,-0.001 0.002,-0.001l0.001 -0.001c0.001,0 0.002,0 0.002,-0.001 0,0 0,0 0.001,0 0,0 0.001,-0.001 0.002,-0.001 0,0 0,0 0,0 0.001,-0.001 0.002,-0.001 0.003,-0.002 0,0 0,0 0,0 0.001,0 0.001,-0.001 0.002,-0.001 0,0 0,0 0.001,0 0,-0.001 0.001,-0.001 0.002,-0.001 0,-0.001 0,-0.001 0,-0.001 0.001,0 0.002,-0.001 0.002,-0.001 0,0 0.001,0 0.001,0 0,-0.001 0.001,-0.001 0.002,-0.002 0,0 0,0 0,0 0.001,0 0.002,0 0.002,-0.001 0.001,0 0.001,0 0.001,0 0.001,-0.001 0.001,-0.001 0.002,-0.001 0,0 0.001,-0.001 0.001,-0.001 0,0 0.001,0 0.002,-0.001 0,0 0,0 0,0 0.001,-0.001 0.002,-0.001 0.002,-0.001 0.001,0 0.001,0 0.001,-0.001 0,0 0.001,0 0.002,0 0,-0.001 0,-0.001 0.001,-0.001 0,0 0.001,-0.001 0.002,-0.001 0,0 0,0 0,0 0.001,-0.001 0.002,-0.001 0.002,-0.002 0,0 0.001,0 0.001,0 0,0 0.001,-0.001 0.002,-0.001 0,0 0,0 0.001,0 0,-0.001 0,-0.001 0.001,-0.001 0,0 0.001,-0.001 0.001,-0.001 0.001,0 0.001,0 0.002,-0.001 0,0 0.001,0 0.001,0 0,-0.001 0.001,-0.001 0.001,-0.001 0.001,0 0.001,-0.001 0.002,-0.001 0,0 0,0 0.001,-0.001 0,0 0.001,0 0.001,0 0.001,-0.001 0.001,-0.001 0.001,-0.001 0.001,0 0.001,0 0.002,-0.001 0,0 0.001,0 0.001,0 0.001,-0.001 0.001,-0.001 0.002,-0.001 0,0 0,0 0.001,-0.001 0,0 0.001,0 0.001,-0.001 0.001,0 0.001,0 0.001,0 0.001,0 0.002,-0.001 0.002,-0.001l0.001 -0.001c0,0 0.001,0 0.002,-0.001l0 0c0.001,0 0.002,-0.001 0.002,-0.001l0.001 0c0.001,-0.001 0.001,-0.001 0.002,-0.001 0,-0.001 0,-0.001 0.001,-0.001 0,0 0.001,-0.001 0.002,-0.001 0,0 0,0 0,0 0.001,-0.001 0.001,-0.001 0.002,-0.001 0,-0.001 0.001,-0.001 0.001,-0.001 0.001,0 0.001,0 0.002,-0.001 0,0 0,0 0.001,0 0,-0.001 0.001,-0.001 0.001,-0.001 0.001,0 0.001,-0.001 0.002,-0.001 0,0 0,0 0.001,0 0,-0.001 0,-0.001 0.001,-0.001 0,0 0.001,-0.001 0.002,-0.001 0,0 0,0 0.001,-0.001 0,0 0.001,0 0.001,0 0.001,-0.001 0.001,-0.001 0.001,-0.001 0.001,0 0.001,-0.001 0.002,-0.001 0,0 0,0 0.001,0 0,-0.001 0.001,-0.001 0.002,-0.001 0,0 0,-0.001 0,-0.001 0.001,0 0.002,0 0.002,-0.001l0.001 0c0.001,-0.001 0.001,-0.001 0.002,-0.001l0 -0.001c0.001,0 0.002,0 0.003,-0.001 0,0 0,0 0,0 0.002,-0.001 0.004,-0.002 0.005,-0.003l0 0c0.001,0 0.002,-0.001 0.003,-0.001l0 0c0.001,-0.001 0.001,-0.001 0.002,-0.001 0,-0.001 0,0 0.001,-0.001 0,0 0.001,-0.001 0.002,-0.001l0 0c0.001,0 0.002,-0.001 0.002,-0.001 0.001,0 0.001,0 0.001,-0.001 0.001,0 0.001,0 0.002,0 0,-0.001 0,-0.001 0.001,-0.001 0,0 0.001,-0.001 0.001,-0.001 0.001,0 0.001,0 0.001,-0.001 0.001,0 0.002,0 0.003,-0.001l0 0c0,0 0.001,-0.001 0.002,-0.001l0 0c0.002,-0.001 0.004,-0.002 0.005,-0.003l0.001 0c0.009,-0.005 0.019,-0.01 0.029,-0.015l0 0c0.001,-0.001 0.001,-0.001 0.002,-0.002l0 0c0.135,-0.071 0.27,-0.137 0.405,-0.2 0.078,-0.035 0.155,-0.07 0.232,-0.103l0 0c0.007,-0.003 0.014,-0.006 0.021,-0.009l0 0c0.002,-0.001 0.004,-0.002 0.005,-0.002l0.001 0c0.001,-0.001 0.001,-0.001 0.002,-0.001 0,0 0,0 0,-0.001 0.001,0 0.002,0 0.002,0 0,0 0.001,-0.001 0.001,-0.001 0.001,0 0.002,0 0.002,-0.001l0.001 0c0,0 0.001,0 0.002,-0.001 0,0 0,0 0,0 0.001,0 0.001,0 0.002,-0.001 0.001,0 0.001,0 0.001,0 0.001,0 0.001,0 0.001,0 0.001,-0.001 0.001,-0.001 0.002,-0.001 0,0 0,0 0.001,-0.001 0.001,0 0.001,0 0.002,-0.001 0,0 0,0 0,0 0.001,0 0.002,0 0.002,-0.001 0,0 0.001,0 0.001,0 0.001,0 0.001,0 0.002,-0.001 0,0 0,0 0,0 0.001,0 0.002,0 0.003,-0.001 0,0 0,0 0,0 0.001,0 0.002,-0.001 0.002,-0.001l0.001 0c0.001,0 0.001,-0.001 0.002,-0.001 0,0 0,0 0.001,0 0,-0.001 0.001,-0.001 0.002,-0.001l0 0c0.001,-0.001 0.001,-0.001 0.002,-0.001 0,0 0.001,0 0.001,0 0.001,-0.001 0.001,-0.001 0.002,-0.001l0 -0.001c0.001,0 0.002,0 0.003,-0.001l0 0c0.001,0 0.001,0 0.002,-0.001l0 0c1.576,-0.659 3.078,-0.785 3.29,-0.8 0,0 0,0 0,0 0.003,0 0.005,0 0.008,0 0,0 0,0 0,0 0,0 0.001,0 0.001,0 0,0 0,0 0,0l0 0c0.001,0 0.001,0 0.001,0 0,0 0.001,0 0.001,0 0,-0.001 0.001,-0.001 0.001,-0.001 0.001,0 0.001,0 0.001,0l0 0c0,0 0.001,0 0.001,0 0,0 0,0 0,0 0.001,0 0.001,0 0.001,0l0.001 0 0 0 0 0c0,0 0.001,0 0.001,0 0.001,0 0.001,0 0.002,0 0,0 0,0 0,0l0 0 0 0c0,0 0.001,0 0.001,0l0 0c0,0 0,0 0.001,0l0 0c0,0 0,0 0,0l0 0c0.001,0 0.001,0 0.002,0 0,0 0,0 0,0l0 0 0 0 0 0 0.001 0 0 0c0,0 0,0 0,0 0,0 0,0 0,0l0 0 0 0c0,0 0.001,0 0.001,-0.001l0 0 0 0 0 0 0 0 0 0 0 0c0,0 0,-0.001 0.001,-0.004 0.005,-0.139 0.168,-3.562 3.057,-5.525 1.171,-0.795 2.789,-1.351 5.027,-1.351 0.181,0 0.368,0.004 0.557,0.011 0.002,0 0.004,0 0.006,0 0.001,0.001 0.002,0.001 0.002,0.001 0.002,0 0.003,0 0.004,0 0.001,0 0.002,0 0.003,0 0.001,0 0.002,0 0.003,0 0.001,0 0.001,0 0.003,0 0.001,0 0.002,0 0.003,0 0.001,0 0.002,0 0.003,0 0.001,0 0.002,0 0.003,0 0.001,0 0.002,0.001 0.003,0.001 0.001,0 0.001,0 0.003,0 0.001,0 0.001,0 0.002,0 0.001,0 0.002,0 0.003,0 0.001,0 0.002,0 0.003,0 0.001,0 0.002,0 0.003,0 0.001,0 0.002,0 0.003,0 0.001,0 0.002,0 0.003,0 0.001,0 0.002,0.001 0.003,0.001 0.001,0 0.001,0 0.002,0 0.002,0 0.005,0 0.007,0 0.001,0 0.002,0 0.002,0 0.002,0 0.003,0 0.004,0 0.001,0 0.001,0 0.002,0 0.002,0 0.002,0.001 0.004,0.001 0.001,0 0.001,0 0.002,0 0.002,0 0.002,0 0.004,0 0,0 0.001,0 0.002,0 0.001,0 0.002,0 0.003,0 0.001,0 0.002,0 0.003,0 0.001,0 0.002,0 0.003,0 0.001,0 0.002,0 0.002,0 0.002,0.001 0.003,0.001 0.004,0.001 0.001,0 0.001,0 0.002,0 0.001,0 0.002,0 0.004,0 0,0 0.001,0 0.001,0 0.002,0 0.003,0 0.005,0l0 0c0.007,0 0.014,0.001 0.021,0.001 0,0 0.001,0 0.001,0 0.002,0 0.003,0 0.005,0 0,0 0,0 0.001,0 0.001,0.001 0.003,0.001 0.004,0.001 0.001,0 0.001,0 0.002,0 0.001,0 0.003,0 0.004,0 0,0 0.001,0 0.001,0 0.002,0 0.003,0 0.005,0 0,0 0,0 0.001,0 0.001,0 0.003,0 0.004,0.001 0.001,0 0.001,0 0.001,0 0.002,0 0.004,0 0.005,0l0.001 0c0.011,0.001 0.021,0.001 0.032,0.002l0 0c0.004,0 0.008,0 0.011,0 0.002,0 0.004,0 0.006,0.001 0.016,0 0.033,0.001 0.049,0.002 1.784,0.105 3.177,0.54 4.266,1.155 0.002,0.001 0.004,0.002 0.006,0.003 0.002,0.001 0.004,0.003 0.007,0.004 1.005,0.571 1.75,1.296 2.302,2.057l0 0c0.002,0.003 0.004,0.005 0.006,0.008l0 0c0.001,0.002 0.002,0.004 0.004,0.006l0 0c0,0.001 0.001,0.002 0.002,0.003 0,0 0,0 0,0 0.001,0.002 0.002,0.004 0.004,0.005l0 0c0.002,0.003 0.004,0.006 0.006,0.008l0 0.001c0.002,0.002 0.004,0.005 0.005,0.008 0.001,0 0.001,0 0.001,0 0.005,0.007 0.01,0.015 0.015,0.022 0,0 0.001,0 0.001,0 0,0.001 0.001,0.002 0.002,0.003l0 0c0.001,0.002 0.002,0.004 0.003,0.005l0.001 0.001c0,0.001 0.001,0.001 0.002,0.002 0.001,0.002 0.002,0.004 0.003,0.006l0.001 0c0.001,0.003 0.003,0.006 0.005,0.008l0.001 0.001c0.001,0.002 0.003,0.005 0.005,0.007 0,0.001 0,0.001 0.001,0.001 0.001,0.002 0.002,0.004 0.003,0.005l0 0c0.001,0.001 0.001,0.002 0.002,0.003 0,0 0,0.001 0.001,0.001 0.001,0.001 0.001,0.002 0.002,0.004 0.001,0 0.001,0.001 0.001,0.001 0.001,0.001 0.001,0.001 0.002,0.002 0,0 0,0.001 0,0.001 0.001,0.002 0.002,0.003 0.003,0.004 0.001,0.001 0.001,0.001 0.001,0.001 0.002,0.003 0.004,0.006 0.005,0.008 0.001,0 0.001,0 0.001,0.001 0.001,0.001 0.001,0.001 0.002,0.002l0 0.001c0.001,0.001 0.002,0.003 0.003,0.004 0.001,0.001 0,0.001 0.001,0.001 0.001,0.003 0.003,0.005 0.005,0.008l0.001 0.001c0.001,0.001 0.002,0.003 0.003,0.005l0 0c0.001,0 0.001,0.001 0.002,0.002 0,0.001 0,0.001 0.001,0.001 0.001,0.002 0.002,0.003 0.003,0.005 0,0 0,0 0,0 0.001,0.001 0.001,0.002 0.002,0.003l0 0c0.001,0.002 0.002,0.004 0.003,0.006l0.001 0c0,0.001 0.001,0.002 0.002,0.002l0 0.001c0.001,0.001 0.002,0.003 0.003,0.004 0,0.001 0.001,0.001 0.001,0.001 0.001,0.003 0.003,0.005 0.005,0.008l0 0.001c0.002,0.002 0.004,0.005 0.006,0.008l0 0c0.001,0.002 0.002,0.003 0.003,0.005 0.001,0 0.001,0 0.001,0.001 0,0 0.001,0.001 0.001,0.002l0.001 0.001c0.001,0.001 0.002,0.003 0.003,0.005l0 0c0.001,0.001 0.002,0.002 0.002,0.002 0,0.001 0,0.001 0,0.001 0.002,0.002 0.003,0.003 0.004,0.005 0,0 0,0 0,0 0.002,0.003 0.004,0.006 0.005,0.008 0.001,0 0.001,0.001 0.001,0.001 0.002,0.002 0.003,0.005 0.005,0.008 0,0 0,0 0,0 0.002,0.003 0.004,0.006 0.006,0.008 0,0 0,0.001 0,0.001 0.001,0.002 0.002,0.003 0.003,0.005l0.001 0c0,0.001 0.001,0.002 0.001,0.003 0,0 0.001,0 0.001,0 0.001,0.002 0.002,0.003 0.003,0.005 0,0 0,0.001 0,0.001 0.001,0 0.002,0.001 0.002,0.002 0,0 0,0.001 0,0.001 0.001,0.001 0.003,0.003 0.004,0.005l0 0c0.001,0.001 0.001,0.002 0.002,0.003 0,0 0,0 0,0 0.001,0.002 0.002,0.003 0.003,0.005 0,0 0,0 0.001,0.001 0,0.001 0.001,0.001 0.001,0.002 0,0 0.001,0.001 0.001,0.001 0.001,0.001 0.002,0.003 0.003,0.004 0,0 0,0.001 0,0.001 0.001,0.001 0.002,0.003 0.003,0.004 0,0.001 0,0.001 0.001,0.001 0,0.001 0.001,0.002 0.001,0.002 0,0.001 0.001,0.002 0.001,0.002 0.001,0.001 0.002,0.002 0.002,0.003 0.001,0.001 0.001,0.002 0.001,0.002 0.001,0.001 0.001,0.001 0.002,0.002 0,0.001 0,0.001 0,0.001 0.001,0.002 0.002,0.003 0.003,0.004 0,0.001 0.001,0.001 0.001,0.001 0,0.001 0.001,0.002 0.001,0.003 0.001,0 0.001,0 0.001,0.001 0.001,0.001 0.002,0.002 0.002,0.003 0.001,0.001 0.001,0.001 0.001,0.002 0.001,0.001 0.001,0.001 0.002,0.002 0,0 0.001,0.001 0.001,0.001 0.001,0.002 0.001,0.003 0.002,0.004 0,0.001 0.001,0.001 0.001,0.001 0.001,0.001 0.001,0.002 0.001,0.003 0.001,0 0.001,0.001 0.001,0.001 0.001,0.001 0.002,0.003 0.003,0.004 0,0 0,0 0,0.001 0.002,0.002 0.004,0.005 0.006,0.008l0 0c0.002,0.003 0.003,0.005 0.005,0.008 0,0 0,0.001 0,0.001 0.001,0.002 0.003,0.003 0.004,0.005l0 0c0,0.001 0.001,0.002 0.001,0.003 0,0 0.001,0 0.001,0 0.001,0.002 0.002,0.003 0.002,0.004 0.001,0.001 0.001,0.001 0.001,0.002 0.001,0 0.001,0.001 0.002,0.002 0,0 0,0.001 0.001,0.001 0,0.001 0.001,0.003 0.002,0.004 0,0 0,0.001 0.001,0.001 0,0.001 0.001,0.002 0.001,0.003l0 0c0.002,0.001 0.003,0.003 0.004,0.005 0,0 0,0 0,0.001 0.001,0 0.001,0.001 0.002,0.002 0,0.001 0,0.001 0.001,0.002 0,0.001 0.001,0.002 0.002,0.003 0,0.001 0,0.001 0.001,0.001 0,0.002 0.002,0.003 0.003,0.005 0,0 0,0 0,0 0,0.001 0.001,0.002 0.001,0.003 0,0 0.001,0 0.001,0.001 0.001,0.001 0.002,0.003 0.003,0.004 0,0.001 0,0.001 0,0.001 0.001,0.001 0.001,0.002 0.002,0.002 0,0.001 0,0.001 0,0.001 0.001,0.002 0.002,0.003 0.003,0.004 0,0 0.001,0.001 0.001,0.002 0,0 0.001,0.001 0.001,0.002 0,0 0.001,0.001 0.001,0.001 0.001,0.001 0.001,0.002 0.002,0.004 0.001,0 0.001,0 0.001,0.001 0.001,0.001 0.001,0.001 0.001,0.002 0.001,0.001 0.001,0.002 0.002,0.002 0,0.001 0.001,0.002 0.001,0.003 0.001,0.001 0.001,0.001 0.002,0.002 0,0 0.001,0.001 0.001,0.002 0,0.001 0.001,0.002 0.002,0.003 0,0 0,0.001 0.001,0.002 0,0 0.001,0.001 0.001,0.001 0.002,0.003 0.003,0.005 0.004,0.007 0.001,0.001 0.001,0.001 0.001,0.002 0.001,0.001 0.002,0.002 0.002,0.003 0.001,0.001 0.001,0.001 0.001,0.002 0.001,0.001 0.001,0.001 0.002,0.002 0,0.001 0,0.001 0.001,0.002 0,0.001 0.001,0.002 0.002,0.003 0,0 0,0.001 0.001,0.001 0,0.001 0.001,0.002 0.001,0.003 0,0 0.001,0.001 0.001,0.001 0.001,0.001 0.001,0.002 0.002,0.003 0,0.001 0.001,0.001 0.001,0.002 0.001,0.001 0.001,0.001 0.001,0.002 0.001,0.001 0.002,0.002 0.002,0.003 0.001,0.001 0.001,0.001 0.001,0.002 0.001,0 0.001,0.001 0.001,0.002 0.001,0 0.001,0.001 0.002,0.002 0,0.001 0.001,0.002 0.001,0.002 0.001,0.001 0.001,0.002 0.002,0.003 0,0 0,0.001 0.001,0.001 0,0.001 0.001,0.002 0.001,0.002 0.001,0.001 0.001,0.002 0.002,0.003 0,0.001 0.001,0.002 0.001,0.002 0,0.001 0.001,0.001 0.001,0.002 0,0.001 0.001,0.001 0.001,0.002 0.001,0.001 0.001,0.002 0.002,0.003 0,0 0.001,0.001 0.001,0.002 0.001,0 0.001,0.001 0.001,0.002 0.001,0 0.001,0.002 0.002,0.002 0,0.001 0.001,0.002 0.001,0.003 0.001,0 0.001,0.001 0.001,0.001 0.001,0.001 0.001,0.002 0.002,0.002 0,0.001 0.001,0.002 0.001,0.003 0.001,0.001 0.001,0.001 0.002,0.002 0,0.001 0,0.001 0.001,0.002 0,0.001 0.001,0.002 0.001,0.003 0.001,0.001 0.001,0.001 0.001,0.001 0.001,0.001 0.002,0.002 0.002,0.003 0,0 0,0.001 0.001,0.001 0,0.001 0.001,0.003 0.002,0.004 0,0 0,0.001 0.001,0.001 0,0.001 0.001,0.002 0.001,0.002 0,0.001 0.001,0.001 0.001,0.002 0.001,0.001 0.001,0.002 0.002,0.003 0,0.001 0.001,0.001 0.001,0.002 0,0.001 0.001,0.001 0.001,0.002 0.001,0.001 0.001,0.001 0.001,0.002 0.001,0 0.001,0.002 0.002,0.003 0,0 0.001,0.001 0.001,0.002 0.001,0 0.001,0.001 0.002,0.002 0,0 0,0.001 0,0.001 0.001,0.002 0.002,0.002 0.002,0.004 0.001,0 0.001,0.001 0.001,0.001 0.001,0.001 0.001,0.002 0.002,0.003 0,0 0.001,0.001 0.001,0.001 0.001,0.001 0.001,0.002 0.002,0.003 0,0.001 0,0.001 0,0.002 0.001,0.001 0.002,0.002 0.002,0.003 0.001,0.001 0.001,0.001 0.001,0.001 0.001,0.001 0.001,0.002 0.002,0.003 0,0 0,0.001 0.001,0.001 0,0.001 0.001,0.002 0.002,0.003 0,0.001 0,0.001 0.001,0.002 0,0.001 0,0.002 0.001,0.002 0,0.001 0,0.001 0.001,0.002 0,0.001 0.001,0.002 0.002,0.003 0,0.001 0,0.001 0.001,0.002 0,0.001 0.001,0.001 0.001,0.002 0,0.001 0.001,0.001 0.001,0.001 0,0.002 0.001,0.003 0.002,0.004 0,0 0,0.001 0.001,0.001 0,0.001 0.001,0.002 0.001,0.003 0.001,0 0.001,0.001 0.001,0.001 0.001,0.001 0.002,0.003 0.002,0.004 0,0 0.001,0 0.001,0.001 0,0.001 0.001,0.002 0.002,0.003 0,0 0,0.001 0,0.001 0.001,0.001 0.002,0.002 0.002,0.003 0,0 0.001,0.001 0.001,0.002 0,0 0.001,0.001 0.001,0.002 0.001,0.001 0.001,0.002 0.002,0.003 0,0 0.001,0.001 0.001,0.002 0,0 0.001,0.001 0.001,0.001 0.001,0.001 0.001,0.002 0.002,0.004 0,0 0,0 0.001,0.001 0,0.001 0.001,0.001 0.001,0.002 0.001,0.001 0.001,0.001 0.001,0.002 0.001,0.001 0.001,0.002 0.002,0.003 0,0.001 0.001,0.001 0.001,0.002 0,0.001 0.001,0.001 0.001,0.002 0.001,0.001 0.001,0.001 0.001,0.001 0.001,0.001 0.001,0.003 0.002,0.004 0,0 0.001,0.001 0.001,0.001 0.001,0.001 0.001,0.002 0.002,0.003 0,0 0,0.001 0,0.001 0.001,0.001 0.001,0.002 0.002,0.003 0,0.001 0.001,0.001 0.001,0.002 0,0.001 0.001,0.002 0.002,0.003 0,0 0,0 0,0.001 0.001,0.001 0.002,0.002 0.002,0.003 0,0 0.001,0.001 0.001,0.001 0.001,0.002 0.001,0.003 0.002,0.004 0,0 0,0 0,0.001 0.001,0.001 0.002,0.002 0.002,0.003 0,0 0.001,0 0.001,0.001 0.001,0.001 0.001,0.002 0.002,0.004l0 0c0.001,0.002 0.002,0.002 0.002,0.004 0,0 0.001,0 0.001,0.001 0.001,0.001 0.001,0.002 0.002,0.003 0,0.001 0,0.001 0.001,0.001 0,0.001 0.001,0.002 0.001,0.003 0,0 0.001,0.001 0.001,0.001 0.001,0.001 0.001,0.003 0.002,0.004 0,0 0,0.001 0,0.001 0.001,0.001 0.002,0.002 0.002,0.003 0.001,0 0.001,0.001 0.001,0.001 0,0.001 0.001,0.003 0.002,0.004 0,0 0,0 0,0 0.001,0.002 0.002,0.002 0.002,0.004 0,0 0.001,0.001 0.001,0.001 0,0.001 0.001,0.002 0.002,0.003 0,0 0,0.001 0,0.001 0.001,0.001 0.002,0.002 0.002,0.004 0.001,0 0.001,0 0.001,0.001 0.001,0.001 0.001,0.002 0.002,0.003 0,0 0,0.001 0,0.001 0.001,0.001 0.002,0.002 0.002,0.003 0.001,0.001 0.001,0.001 0.001,0.001 0,0.001 0.001,0.002 0.002,0.003 0,0.001 0,0.001 0,0.001 0.001,0.002 0.002,0.003 0.002,0.004 0,0 0.001,0.001 0.001,0.001 0,0.001 0.001,0.002 0.001,0.003 0.001,0.001 0.001,0.001 0.001,0.001 0.001,0.001 0.001,0.003 0.002,0.004 0,0 0,0 0.001,0.001 0,0.001 0.001,0.002 0.002,0.003l0 0.001c0.001,0.001 0.001,0.002 0.002,0.003 0,0.001 0,0.001 0.001,0.002 0,0.001 0.001,0.001 0.001,0.003 0.001,0 0.001,0.001 0.001,0.001 0.001,0.001 0.001,0.002 0.002,0.003 0,0 0,0.001 0.001,0.001 0,0.001 0.001,0.002 0.001,0.003 0.001,0.001 0.001,0.001 0.001,0.002 0.001,0.001 0.001,0.002 0.002,0.002 0,0.001 0,0.002 0,0.002 0.001,0.001 0.002,0.002 0.002,0.003 0.001,0.001 0.001,0.001 0.001,0.001 0,0.001 0.001,0.002 0.002,0.003 0,0.001 0,0.001 0,0.001 0.001,0.002 0.001,0.003 0.002,0.004 0,0 0.001,0.001 0.001,0.001 0,0.001 0.001,0.002 0.001,0.003 0.001,0 0.001,0.001 0.001,0.001 0.001,0.002 0.001,0.002 0.002,0.004 0,0 0,0 0.001,0.001 0,0.001 0.001,0.002 0.001,0.003 0,0 0.001,0 0.001,0.001 0,0.001 0.001,0.002 0.002,0.003 0,0.001 0,0.001 0,0.001 0.001,0.002 0.002,0.003 0.002,0.004l0 0c0.001,0.001 0.002,0.003 0.003,0.004 0,0 0,0.001 0,0.001 0.001,0.001 0.002,0.003 0.002,0.004l0 0c0.001,0.001 0.002,0.002 0.003,0.004 0,0 0,0 0,0.001 0,0.001 0.001,0.002 0.002,0.003 0,0.001 0,0.001 0,0.001 0.001,0.001 0.001,0.002 0.002,0.003 0,0.001 0.001,0.001 0.001,0.001 0,0.002 0.001,0.003 0.002,0.004 0,0 0,0.001 0,0.001 0.001,0.001 0.002,0.002 0.002,0.003 0,0 0,0.001 0,0.001 0.001,0.001 0.002,0.003 0.003,0.004l0 0c0,0.001 0.001,0.003 0.002,0.004l0 0c0.001,0.002 0.001,0.003 0.002,0.004 0,0.001 0,0.001 0.001,0.001 0,0.001 0.001,0.003 0.002,0.004l0 0c0,0.001 0.001,0.003 0.002,0.004 0,0 0,0 0,0.001 0.002,0.002 0.003,0.005 0.004,0.007 0.001,0.001 0.001,0.001 0.001,0.002 0.001,0.001 0.001,0.002 0.002,0.003l0 0.001c0.001,0.001 0.002,0.002 0.002,0.003 0,0.001 0.001,0.001 0.001,0.001 0,0.001 0.001,0.003 0.002,0.004 0,0 0,0 0,0.001 0.001,0.001 0.001,0.002 0.002,0.003 0,0 0,0.001 0,0.001 0.001,0.001 0.002,0.002 0.002,0.004 0.001,0 0.001,0 0.001,0 0,0.001 0.001,0.003 0.002,0.004 0,0 0,0 0,0.001 0.001,0.001 0.001,0.002 0.002,0.003 0,0 0.001,0.001 0.001,0.001 0,0.001 0.001,0.002 0.001,0.003 0,0.001 0.001,0.001 0.001,0.002 0.001,0.001 0.001,0.002 0.002,0.003 0,0 0,0.001 0,0.001 0.001,0.001 0.001,0.002 0.002,0.003 0,0 0,0.001 0.001,0.001 0,0.001 0.001,0.002 0.001,0.003 0.001,0.001 0.001,0.001 0.001,0.002 0.001,0.001 0.001,0.002 0.002,0.003 0,0 0,0.001 0,0.001 0.001,0.001 0.001,0.002 0.002,0.003 0,0 0,0.001 0,0.001 0.001,0.001 0.002,0.003 0.002,0.004 0,0 0.001,0 0.001,0 0,0.002 0.001,0.003 0.002,0.004 0,0 0,0 0,0.001 0.001,0.001 0.001,0.002 0.002,0.003 0,0.001 0,0.001 0.001,0.001 0,0.002 0.001,0.003 0.001,0.004 0,0 0,0 0,0 0.001,0.002 0.002,0.003 0.003,0.004 0,0 0,0.001 0,0.001 0.001,0.001 0.001,0.002 0.002,0.003 0,0.001 0,0.001 0,0.001 0.001,0.001 0.001,0.002 0.002,0.004 0,0 0,0 0.001,0.001 0.001,0.002 0.002,0.005 0.004,0.007 0,0.001 0,0.001 0,0.001 0.001,0.002 0.001,0.003 0.002,0.004 0,0 0,0.001 0,0.001 0.001,0.001 0.002,0.002 0.002,0.003 0,0 0.001,0.001 0.001,0.001 0,0.002 0.001,0.002 0.002,0.004 0,0 0,0 0,0 0,0.001 0.001,0.002 0.002,0.004 0,0 0,0 0,0.001 0.001,0.001 0.001,0.002 0.002,0.003 0,0.001 0,0.001 0.001,0.001 0,0.001 0.001,0.002 0.001,0.003 0,0.001 0,0.001 0.001,0.001 0,0.001 0.001,0.003 0.002,0.004 0,0 0,0 0,0.001 0.001,0.001 0.001,0.002 0.002,0.003l0 0.001c0.001,0.001 0.001,0.002 0.002,0.004 0,0 0,0 0.001,0.001 0,0.001 0,0.001 0.001,0.003 0,0 0.001,0.001 0.001,0.001 0,0.001 0.001,0.002 0.001,0.003 0.001,0 0.001,0.001 0.001,0.001 0.001,0.001 0.001,0.003 0.002,0.004l0 0c0.001,0.002 0.002,0.003 0.002,0.004l0 0c0.001,0.002 0.002,0.003 0.002,0.004 0,0.001 0.001,0.001 0.001,0.001 0,0.001 0.001,0.002 0.001,0.003 0.001,0.001 0.001,0.001 0.001,0.002 0,0 0.001,0.002 0.002,0.003 0,0 0,0.001 0,0.001 0.001,0.001 0.001,0.002 0.002,0.003 0,0 0,0.001 0,0.001 0.001,0.001 0.002,0.002 0.002,0.003 0,0.001 0.001,0.002 0.001,0.002 0,0.001 0.001,0.002 0.001,0.003 0,0 0.001,0.001 0.001,0.001 0,0.001 0.001,0.002 0.001,0.003 0.001,0.001 0.001,0.001 0.001,0.002 0.001,0.001 0.001,0.001 0.002,0.002 0,0.001 0,0.001 0,0.002 0.001,0.001 0.001,0.002 0.002,0.002 0,0.001 0,0.002 0.001,0.002 0,0.001 0.001,0.002 0.001,0.003 0,0.001 0.001,0.001 0.001,0.002 0,0 0.001,0.001 0.001,0.002 0,0.001 0.001,0.001 0.001,0.002 0.001,0.001 0.001,0.002 0.002,0.003 0,0.001 0,0.001 0,0.001 0.001,0.001 0.001,0.002 0.002,0.003 0,0 0,0.001 0,0.001 0.001,0.001 0.001,0.003 0.002,0.004 0,0 0,0.001 0.001,0.001 0,0.001 0,0.002 0.001,0.002 0,0.001 0,0.001 0.001,0.002 0,0.001 0.001,0.002 0.001,0.003 0.001,0.001 0.001,0.001 0.001,0.002 0.001,0.001 0.001,0.001 0.001,0.002 0,0.001 0.001,0.001 0.001,0.002 0.001,0.001 0.001,0.002 0.002,0.003 0,0 0,0.001 0,0.001 0.001,0.001 0.001,0.002 0.002,0.003 0,0.001 0,0.001 0,0.001 0.001,0.001 0.002,0.003 0.002,0.004 0,0 0,0 0.001,0.001 0,0.001 0.001,0.002 0.001,0.003 0.001,0.001 0.001,0.001 0.001,0.001 0,0.001 0.001,0.002 0.001,0.003 0,0.001 0.001,0.001 0.001,0.001 0,0.002 0.001,0.003 0.002,0.004 0,0 0,0 0,0.001 0.001,0.001 0.001,0.002 0.002,0.003 0,0 0,0.001 0,0.001 0.001,0.001 0.001,0.002 0.002,0.004 0,0 0,0 0,0 0.001,0.002 0.001,0.003 0.002,0.004 0,0 0,0 0,0 0.001,0.002 0.002,0.003 0.002,0.004 0,0 0,0.001 0,0.001 0.001,0.001 0.002,0.002 0.002,0.003 0,0.001 0.001,0.001 0.001,0.001 0,0.001 0.001,0.003 0.001,0.004 0.001,0 0.001,0.001 0.001,0.001 0,0.001 0.001,0.002 0.002,0.003l0 0.001c0,0.001 0.001,0.002 0.002,0.003 0,0.001 0,0.001 0,0.001 0.001,0.003 0.003,0.006 0.004,0.008 0,0 0,0.001 0,0.001 0.001,0.001 0.002,0.003 0.002,0.004l0 0c0.001,0.001 0.002,0.003 0.002,0.004 0,0 0,0 0.001,0 0,0.002 0.001,0.003 0.001,0.004 0,0 0.001,0.001 0.001,0.001 0,0.001 0.001,0.002 0.001,0.003 0,0.001 0.001,0.001 0.001,0.001 0,0.001 0.001,0.003 0.001,0.004 0.001,0 0.001,0 0.001,0.001 0,0.001 0.001,0.002 0.002,0.003 0,0 0,0.001 0,0.001 0,0.001 0.001,0.002 0.002,0.004l0 0c0.003,0.006 0.005,0.011 0.008,0.017l0 0c0.001,0.001 0.002,0.003 0.002,0.004 0,0 0,0.001 0.001,0.001 0,0.001 0.001,0.002 0.001,0.003 0,0.001 0,0.001 0,0.001 0.001,0.001 0.002,0.003 0.002,0.004l0.001 0c0,0.002 0.001,0.003 0.001,0.004l0.001 0.001c0,0.001 0.001,0.002 0.002,0.004 0,0 0,0 0,0 0,0.001 0.001,0.003 0.002,0.004l0 0c0.001,0.002 0.001,0.003 0.002,0.004 0,0.001 0,0.001 0,0.001 0.001,0.002 0.002,0.005 0.004,0.008 0,0 0,0 0,0.001 0.001,0.002 0.003,0.005 0.004,0.007 0,0.001 0,0.001 0,0.001 0.001,0.001 0.001,0.003 0.002,0.004l0 0c0.001,0.001 0.001,0.003 0.002,0.004 0,0 0,0 0,0.001 0.001,0.001 0.001,0.002 0.002,0.004l0 0c0.001,0.001 0.001,0.002 0.002,0.004 0,0 0,0 0,0 0.001,0.002 0.001,0.003 0.002,0.004 0,0 0,0 0,0.001 0.001,0.001 0.002,0.002 0.002,0.003 0,0 0,0.001 0,0.001 0.001,0.001 0.002,0.002 0.002,0.004 0,0 0,0 0,0 0.001,0.001 0.002,0.003 0.002,0.004 0,0 0,0 0,0 0.001,0.002 0.002,0.003 0.002,0.004 0,0 0,0.001 0,0.001 0.001,0.001 0.002,0.003 0.002,0.004l0 0c0.001,0.001 0.002,0.002 0.002,0.004 0,0 0,0 0.001,0.001 0,0.001 0.001,0.002 0.001,0.003 0,0 0.001,0.001 0.001,0.001 0,0.001 0.001,0.002 0.001,0.003 0,0.001 0,0.001 0.001,0.001 0,0.001 0.001,0.003 0.001,0.004 0,0 0.001,0 0.001,0.001 0,0.001 0.001,0.002 0.001,0.003 0,0 0,0 0.001,0.001 0,0.001 0.001,0.002 0.001,0.004 0,0 0,0 0.001,0 0,0.001 0.001,0.003 0.001,0.004l0 0c0.001,0.001 0.002,0.003 0.002,0.004l0 0c0.001,0.002 0.002,0.003 0.002,0.005l0 0c0.001,0.001 0.002,0.002 0.002,0.004 0,0 0,0 0,0 0.002,0.003 0.003,0.005 0.004,0.008 0,0 0,0.001 0,0.001 0.002,0.003 0.003,0.005 0.004,0.008l0 0c0.001,0.003 0.003,0.006 0.004,0.008 0,0.001 0,0.001 0,0.001 0.001,0.001 0.001,0.003 0.002,0.004l0 0c0.001,0.003 0.003,0.006 0.004,0.009 0,0 0,0 0,0 0.001,0.001 0.001,0.003 0.002,0.004l0 0c0,0.001 0.001,0.003 0.002,0.004 0,0 0,0 0,0.001 0.001,0.002 0.002,0.005 0.004,0.008l0 0c0,0.001 0.001,0.003 0.002,0.004l0 0c0,0.002 0.001,0.003 0.002,0.004l0 0.001c0,0.001 0.001,0.002 0.002,0.004l0 0c0,0.001 0.001,0.002 0.001,0.004 0,0 0,0 0.001,0 0,0.002 0.001,0.003 0.001,0.004 0,0 0.001,0.001 0.001,0.001 0,0.001 0.001,0.002 0.001,0.003l0 0.001c0.001,0.001 0.002,0.002 0.002,0.004 0,0 0,0 0,0 0.001,0.001 0.002,0.003 0.002,0.004l0 0c0.001,0.001 0.001,0.003 0.002,0.004 0,0 0,0.001 0,0.001 0.002,0.003 0.003,0.005 0.004,0.008l0 0c0.001,0.002 0.001,0.003 0.002,0.004 0,0.002 0.001,0.003 0.001,0.004 0.001,0 0.001,0.001 0.001,0.001 0,0.001 0.001,0.003 0.002,0.004l0 0c0,0.001 0.001,0.003 0.001,0.004 0,0 0.001,0 0.001,0 0.001,0.003 0.002,0.006 0.003,0.009l0 0c0.001,0.001 0.001,0.003 0.002,0.004l0 0c0.001,0.001 0.001,0.003 0.002,0.004 0,0 0,0 0,0 0.001,0.002 0.001,0.003 0.002,0.004 0,0.001 0,0.001 0,0.001 0.001,0.003 0.002,0.005 0.004,0.008l0 0c0.001,0.003 0.002,0.006 0.003,0.008l0.001 0.001c0,0.001 0.001,0.003 0.001,0.004l0 0c0.001,0.003 0.003,0.006 0.004,0.008l0 0.001c0.001,0.001 0.001,0.002 0.002,0.004 0,0 0,0 0,0 0.001,0.001 0.001,0.002 0.002,0.004 0,0 0,0 0,0.001 0,0.001 0.001,0.002 0.001,0.003l0.001 0c0,0.002 0.001,0.003 0.001,0.005l0 0c0.002,0.003 0.003,0.005 0.004,0.008l0 0c0.001,0.003 0.002,0.006 0.004,0.009l0 0c0.001,0.003 0.002,0.005 0.003,0.008l0 0c0.003,0.006 0.005,0.012 0.007,0.017l0.001 0.001c0,0.001 0.001,0.002 0.001,0.003l0.001 0.001c0.001,0.002 0.002,0.005 0.003,0.008 0,0 0,0 0,0 0.001,0.002 0.001,0.003 0.002,0.004 0,0 0,0 0,0.001 0.001,0.001 0.001,0.002 0.001,0.003l0.001 0.001c0.002,0.004 0.003,0.008 0.005,0.012l0 0.001c0.001,0.001 0.001,0.002 0.002,0.004l0 0c0,0.001 0.001,0.002 0.002,0.004 0.001,0.003 0.002,0.006 0.003,0.008 0,0 0,0.001 0,0.001 0.001,0.002 0.002,0.005 0.004,0.008l0 0c0.001,0.003 0.002,0.005 0.003,0.008l0 0.001c0.001,0.002 0.002,0.005 0.003,0.007 0.001,0.001 0.001,0.001 0.001,0.001 0,0.002 0.001,0.003 0.001,0.004l0 0c0.001,0.002 0.001,0.003 0.002,0.004 0,0 0,0 0,0.001 0.001,0.001 0.001,0.002 0.002,0.003l0 0.001c0.001,0.001 0.001,0.002 0.002,0.004l0 0c0,0.001 0.001,0.003 0.001,0.004 0,0 0,0 0.001,0 0.001,0.003 0.002,0.006 0.003,0.009l0 0c0.001,0.002 0.002,0.005 0.003,0.008l0 0c0.001,0.001 0.002,0.003 0.002,0.004l0 0c0.001,0.002 0.001,0.003 0.002,0.004l0 0.001c0,0.001 0.001,0.002 0.001,0.004l0 0c0.003,0.005 0.005,0.011 0.007,0.016 0,0 0,0.001 0,0.001 0.001,0.002 0.003,0.005 0.004,0.008 0,0 0,0 0,0 0.001,0.003 0.002,0.006 0.003,0.008l0 0.001c0.001,0.002 0.002,0.005 0.003,0.008l0.001 0c0.001,0.004 0.003,0.009 0.005,0.013l0 0c0,0.001 0.001,0.002 0.001,0.003 0,0.001 0,0.001 0,0.001 0.001,0.002 0.001,0.003 0.002,0.004l0 0c0.002,0.006 0.004,0.011 0.006,0.017l0.001 0c0.001,0.003 0.002,0.005 0.003,0.008l0 0.001c0,0.001 0.001,0.002 0.001,0.003 0,0.001 0.001,0.001 0.001,0.001 0,0.001 0.001,0.002 0.001,0.003l0 0.001c0.001,0.001 0.001,0.003 0.002,0.004l0 0c0,0.002 0.001,0.003 0.001,0.004l0 0c0.001,0.002 0.001,0.003 0.002,0.004 0,0 0,0.001 0,0.001 0.002,0.005 0.004,0.01 0.007,0.016 0,0 0,0 0,0 0.001,0.003 0.002,0.006 0.003,0.008l0 0.001c0.001,0.002 0.002,0.005 0.003,0.008l0 0c0.001,0.001 0.001,0.003 0.002,0.004l0 0c0,0.002 0.001,0.003 0.001,0.004l0 0.001c0.001,0.001 0.001,0.002 0.002,0.003l0 0.001c0,0.001 0.001,0.002 0.002,0.004l0 0c0,0.001 0.001,0.002 0.001,0.004 0,0 0,0 0,0 0.001,0.002 0.001,0.003 0.002,0.004l0 0c0,0.002 0.001,0.003 0.001,0.004l0.001 0.001c0.002,0.005 0.003,0.01 0.006,0.016l0 0c0.003,0.01 0.007,0.019 0.011,0.029l0 0c0.001,0.003 0.002,0.005 0.003,0.008 0,0.001 0,0.001 0,0.001 0.001,0.002 0.002,0.005 0.003,0.008l0 0c0.001,0.002 0.002,0.005 0.003,0.008 0,0 0,0 0,0 0.001,0.003 0.002,0.006 0.003,0.008l0 0.001c0.001,0.001 0.001,0.002 0.002,0.004l0 0c0,0.001 0.001,0.002 0.001,0.003l0 0.001c0.001,0.001 0.001,0.003 0.002,0.004l0 0c0.001,0.003 0.002,0.006 0.003,0.008l0 0c0,0.002 0.001,0.003 0.001,0.004l0 0.001c0.001,0.001 0.001,0.002 0.002,0.003l0 0.001c0,0.001 0.001,0.002 0.001,0.004l0 0c0.001,0.001 0.001,0.002 0.002,0.004l0 0c0,0.001 0.001,0.002 0.001,0.004 0,0 0,0 0.001,0.001 0,0.001 0,0.002 0.001,0.003 0,0 0,0 0,0 0,0.002 0.001,0.003 0.001,0.004 0,0 0.001,0 0.001,0.001 0,0.002 0.001,0.005 0.002,0.007 0,0.001 0,0.001 0,0.001 0.001,0.003 0.002,0.005 0.003,0.008 0,0 0,0 0,0 0.001,0.003 0.002,0.005 0.003,0.008 0,0 0,0 0,0 0.001,0.003 0.002,0.006 0.003,0.008l0 0.001c0.001,0.001 0.001,0.002 0.002,0.003l0 0.001c0,0.001 0.001,0.002 0.001,0.003l0 0.001c0.001,0.001 0.001,0.002 0.002,0.004l0 0c0,0.001 0.001,0.003 0.001,0.004l0 0c0.001,0.001 0.001,0.003 0.002,0.004 0,0 0,0 0,0 0,0.001 0.001,0.003 0.001,0.004 0,0 0,0 0,0 0.001,0.002 0.001,0.003 0.001,0.004 0.001,0 0,0 0.001,0.001 0.001,0.002 0.002,0.004 0.002,0.007 0,0 0.001,0.001 0.001,0.001 0,0.002 0.001,0.005 0.002,0.008l0.001 0c0,0.001 0,0.002 0.001,0.004l0 0c0,0.001 0.001,0.002 0.001,0.004 0,0 0,0 0,0 0.001,0.001 0.001,0.002 0.002,0.004 0,0 0,0 0,0.001 0,0.001 0.001,0.002 0.001,0.003l0 0c0.001,0.001 0.001,0.002 0.001,0.004 0.001,0 0.001,0 0.001,0.001 0,0.001 0.001,0.002 0.001,0.003l0 0c0,0.002 0.001,0.003 0.001,0.004 0,0 0.001,0.001 0.001,0.001 0.001,0.002 0.001,0.005 0.002,0.007 0,0.001 0,0.001 0,0.001 0.001,0.001 0.001,0.003 0.002,0.004 0,0 0,0 0,0 0,0.001 0.001,0.002 0.001,0.003 0,0.001 0,0.001 0,0.001 0.001,0.002 0.001,0.003 0.002,0.004l0 0c0,0.001 0,0.002 0.001,0.004 0,0 0,0 0,0 0,0.002 0.001,0.003 0.001,0.004 0,0 0,0 0.001,0 0,0.002 0,0.003 0.001,0.004l0 0c0,0.002 0.001,0.003 0.001,0.004l0 0c0.001,0.003 0.002,0.006 0.003,0.008l0 0.001c0.001,0.001 0.001,0.002 0.001,0.004l0 0c0.002,0.005 0.004,0.01 0.006,0.016l0 0c0.001,0.003 0.002,0.005 0.003,0.008l0 0c0,0.001 0.001,0.003 0.001,0.004l0 0c0.001,0.001 0.001,0.002 0.001,0.004 0,0 0.001,0 0.001,0.001 0.001,0.002 0.001,0.005 0.002,0.007l0 0c0.001,0.003 0.002,0.006 0.003,0.008l0 0c0.001,0.003 0.002,0.006 0.003,0.009l0 0c0.006,0.019 0.012,0.037 0.019,0.056l0 0c0.003,0.011 0.007,0.022 0.01,0.032l0 0c0.002,0.006 0.003,0.011 0.005,0.016l0 0.001c0.001,0.001 0.001,0.002 0.002,0.004 0.001,0.005 0.003,0.01 0.005,0.016 0,0.002 0.001,0.005 0.002,0.008l0 0c0,0.001 0.001,0.002 0.001,0.003 0.001,0 0.001,0.001 0.001,0.001 0,0.001 0,0.002 0.001,0.003 0,0 0,0.001 0,0.001 0,0.001 0.001,0.002 0.001,0.004l0 0c0,0.001 0.001,0.002 0.001,0.004l0 0c0.001,0.001 0.001,0.002 0.001,0.003l0.001 0.001c0,0.002 0.001,0.005 0.002,0.007 0,0 0,0.001 0,0.001 0.001,0.002 0.002,0.004 0.002,0.007 0,0 0.001,0.001 0.001,0.001 0,0.001 0,0.002 0.001,0.004l0 0c0,0.001 0,0.002 0.001,0.003 0,0.001 0,0.001 0,0.001 0,0.001 0.001,0.002 0.001,0.003l0 0.001c0.001,0.001 0.001,0.002 0.001,0.003 0,0 0,0 0.001,0.001 0.002,0.009 0.005,0.018 0.008,0.027l0 0c0.002,0.006 0.003,0.011 0.005,0.016 0,0.001 0.001,0.003 0.001,0.004 0,0 0,0 0,0 0.002,0.005 0.003,0.011 0.005,0.016l0 0c0.001,0.005 0.003,0.01 0.005,0.015 0,0.001 0,0.001 0,0.001 0.002,0.009 0.005,0.018 0.008,0.027l0 0c0,0.001 0.001,0.003 0.001,0.004 0,0 0,0 0,0 0.001,0.002 0.001,0.003 0.001,0.004l0 0c0.003,0.009 0.006,0.018 0.008,0.027l0 0.001c0.001,0.002 0.002,0.005 0.003,0.007l0 0c0.005,0.02 0.011,0.039 0.017,0.058l0 0.001c0.001,0.003 0.002,0.007 0.003,0.011 0,0 0,0 0,0 0,0.002 0,0.003 0.001,0.004l0 0c0,0.001 0.001,0.002 0.001,0.004 0,0 0,0 0,0 0,0.001 0.001,0.002 0.001,0.003 0,0.001 0,0.001 0,0.001 0,0.001 0.001,0.002 0.001,0.003 0,0.001 0,0.001 0,0.001 0.001,0.001 0.001,0.002 0.001,0.003l0 0c0.001,0.002 0.001,0.003 0.001,0.004l0 0c0.002,0.008 0.005,0.016 0.007,0.023l0 0c0.008,0.028 0.015,0.056 0.023,0.084l0 0c0,0.003 0.001,0.005 0.001,0.007 0.001,0.001 0.001,0.001 0.001,0.001 0,0.001 0,0.002 0.001,0.003 0,0 0,0.001 0,0.001 0,0.001 0,0.002 0.001,0.003 0.001,0.007 0.003,0.013 0.005,0.019l0 0c0,0.001 0,0.003 0.001,0.004 0,0 0,0 0,0 0.002,0.01 0.005,0.02 0.008,0.03l0 0c0,0.002 0.001,0.005 0.002,0.007l0 0.001c0,0.002 0.001,0.004 0.001,0.007l0 0c0.001,0.002 0.002,0.005 0.002,0.007l0 0c0.001,0.002 0.001,0.003 0.001,0.004l0 0c0.001,0.001 0.001,0.003 0.001,0.004l0 0c0.002,0.009 0.005,0.017 0.007,0.026l0 0c0,0.001 0.001,0.002 0.001,0.003l0 0.001c0.26,1.027 0.26,1.769 0.26,1.769 0.286,-0.058 0.636,-0.091 1.025,-0.091 1.235,0 2.868,0.335 4.148,1.294 0.002,0.002 0.003,0.003 0.005,0.004l0 0c0.008,0.005 0.015,0.011 0.023,0.017l0 0c0.001,0.001 0.003,0.003 0.004,0.004l0.001 0c0.007,0.006 0.015,0.011 0.023,0.017l0 0c0.001,0.002 0.003,0.003 0.004,0.004l0 0c0.008,0.006 0.015,0.012 0.023,0.018 0,0 0,0 0,0 0.002,0.001 0.003,0.002 0.004,0.003l0.001 0c0.007,0.006 0.015,0.012 0.022,0.018 0.002,0.001 0.003,0.003 0.005,0.004l0 0c0.002,0.001 0.003,0.002 0.004,0.003l0 0c0.006,0.005 0.013,0.01 0.019,0.015 0,0 0,0 0,0 0.001,0.001 0.003,0.002 0.004,0.003 0,0 0,0 0,0.001 0.002,0.001 0.003,0.002 0.004,0.003 0.001,0 0.001,0 0.001,0 0.006,0.005 0.012,0.01 0.018,0.015 0,0 0,0 0,0 0.001,0.001 0.003,0.002 0.004,0.003 0,0 0,0 0,0.001 0.002,0.001 0.003,0.002 0.004,0.003 0,0 0.001,0 0.001,0 0.006,0.005 0.012,0.01 0.018,0.015 0,0 0,0 0,0 0.001,0.001 0.003,0.002 0.004,0.004 0,0 0,0 0,0 0.002,0.001 0.003,0.002 0.004,0.003 0.001,0 0.001,0 0.001,0 0.006,0.005 0.012,0.01 0.018,0.015 0,0 0,0 0,0 0.001,0.001 0.003,0.003 0.004,0.004 0,0 0,0 0,0 0.002,0.001 0.003,0.002 0.004,0.003 0,0.001 0.001,0.001 0.001,0.001 0.006,0.005 0.011,0.01 0.017,0.015l0.001 0c0.001,0.001 0.002,0.002 0.004,0.003 0,0 0,0.001 0,0.001 0.001,0.001 0.003,0.002 0.004,0.003 0,0 0,0 0,0 0.002,0.002 0.003,0.003 0.004,0.004l0.001 0c0.004,0.004 0.008,0.007 0.013,0.011 0,0 0,0.001 0,0.001 0.002,0.001 0.003,0.002 0.004,0.003 0,0 0.001,0 0.001,0.001 0.001,0.001 0.002,0.002 0.003,0.002 0.001,0.001 0.001,0.001 0.001,0.001 0.002,0.001 0.002,0.002 0.004,0.003 0,0.001 0,0.001 0,0.001 0.005,0.004 0.009,0.007 0.013,0.011 0.001,0 0.001,0.001 0.001,0.001 0.001,0.001 0.002,0.002 0.003,0.003 0.001,0 0.001,0 0.002,0.001 0.001,0.001 0.002,0.002 0.003,0.002 0,0.001 0,0.001 0.001,0.001 0.001,0.001 0.002,0.002 0.003,0.003 0,0 0.001,0.001 0.001,0.001 0.001,0.001 0.002,0.002 0.004,0.003 0,0 0,0.001 0,0.001 0.003,0.002 0.006,0.005 0.009,0.007 0,0.001 0,0.001 0,0.001 0.002,0.001 0.003,0.002 0.004,0.003 0,0 0.001,0.001 0.001,0.001 0.001,0.001 0.002,0.002 0.003,0.003 0,0 0.001,0 0.001,0.001 0.001,0.001 0.002,0.002 0.003,0.003 0.001,0 0.001,0 0.001,0 0.002,0.001 0.003,0.003 0.004,0.004 0,0 0,0 0,0 0.003,0.002 0.006,0.005 0.009,0.008l0.001 0c0.001,0.001 0.002,0.002 0.003,0.003 0.001,0.001 0.001,0.001 0.001,0.001 0.001,0.001 0.002,0.002 0.003,0.003 0.001,0 0.001,0.001 0.002,0.001 0.001,0.001 0.001,0.002 0.003,0.003 0,0 0,0.001 0,0.001 0.002,0.001 0.003,0.002 0.004,0.003 0,0 0,0 0.001,0.001 0.003,0.002 0.005,0.005 0.008,0.007 0,0 0,0.001 0.001,0.001 0.001,0.001 0.002,0.002 0.003,0.003 0.001,0 0.001,0 0.001,0.001 0.001,0.001 0.002,0.002 0.003,0.003 0.001,0 0.001,0 0.002,0.001 0.001,0.001 0.001,0.002 0.003,0.002 0,0.001 0,0.001 0.001,0.002 0.001,0.001 0.002,0.001 0.003,0.002 0,0.001 0.001,0.001 0.001,0.001 0.003,0.003 0.005,0.005 0.008,0.008 0,0 0.001,0 0.001,0.001 0.001,0.001 0.002,0.002 0.003,0.003 0,0 0.001,0 0.001,0.001 0.001,0 0.002,0.002 0.003,0.002 0.001,0.001 0.001,0.001 0.001,0.001 0.002,0.001 0.002,0.002 0.003,0.003 0.001,0.001 0.001,0.001 0.002,0.001 0.001,0.001 0.002,0.002 0.002,0.003 0.001,0 0.001,0.001 0.002,0.001 0.003,0.003 0.005,0.005 0.008,0.008 0,0 0.001,0 0.001,0 0.001,0.002 0.002,0.003 0.003,0.004 0,0 0.001,0 0.001,0.001 0.001,0.001 0.002,0.001 0.003,0.002 0.001,0.001 0.001,0.001 0.001,0.002 0.001,0.001 0.002,0.001 0.003,0.002 0,0.001 0.001,0.001 0.002,0.002 0,0 0.001,0.001 0.002,0.002 0.001,0.001 0.001,0.001 0.002,0.001 0.001,0.001 0.002,0.002 0.003,0.003 0,0.001 0,0.001 0.001,0.001 0.001,0.001 0.002,0.003 0.004,0.004 0,0 0,0 0,0.001 0.002,0.001 0.003,0.002 0.004,0.003 0,0 0,0.001 0.001,0.001 0.001,0.001 0.002,0.002 0.003,0.003 0,0 0.001,0 0.001,0.001 0.001,0.001 0.002,0.002 0.003,0.002 0,0.001 0.001,0.001 0.001,0.002 0.001,0.001 0.002,0.001 0.003,0.002 0,0.001 0.001,0.001 0.001,0.002 0.001,0.001 0.002,0.002 0.003,0.003 0.001,0 0.001,0 0.001,0.001 0.002,0.001 0.003,0.002 0.004,0.003 0,0 0.001,0.001 0.001,0.001 0.001,0.001 0.002,0.002 0.003,0.003 0.001,0.001 0.001,0.001 0.002,0.001 0,0.001 0.001,0.002 0.002,0.003 0.001,0 0.001,0.001 0.002,0.001 0.001,0.001 0.001,0.002 0.002,0.003 0.001,0 0.001,0.001 0.002,0.001 0.001,0.001 0.001,0.002 0.002,0.003 0.001,0 0.001,0.001 0.002,0.001 0.001,0.001 0.002,0.002 0.003,0.003 0,0 0,0.001 0.001,0.001 0.001,0.001 0.002,0.003 0.004,0.004 0,0 0,0.001 0.001,0.001 0.001,0.001 0.002,0.002 0.003,0.003 0,0 0.001,0.001 0.001,0.001 0.001,0.001 0.002,0.002 0.003,0.003 0,0 0.001,0.001 0.001,0.001 0.001,0.001 0.002,0.002 0.003,0.003 0,0 0.001,0 0.001,0.001 0.001,0.001 0.002,0.002 0.003,0.002 0,0.001 0.001,0.001 0.001,0.002 0.001,0.001 0.002,0.002 0.003,0.003 0,0 0.001,0 0.001,0.001 0.001,0.001 0.003,0.002 0.004,0.004 0,0 0,0 0.001,0 0.001,0.001 0.002,0.002 0.003,0.004 0,0 0.001,0.001 0.001,0.001 0.001,0.001 0.002,0.002 0.003,0.002 0,0.001 0.001,0.002 0.002,0.002 0,0.001 0.001,0.002 0.002,0.002 0,0.001 0.001,0.001 0.001,0.002 0.001,0.001 0.002,0.001 0.003,0.002 0,0.001 0.001,0.001 0.001,0.002 0.001,0.001 0.002,0.002 0.003,0.002 0,0.001 0.001,0.001 0.001,0.002 0.001,0.001 0.002,0.002 0.003,0.003 0.001,0 0.002,0.001 0.002,0.002 0.001,0.001 0.002,0.002 0.003,0.003 0,0 0.001,0.001 0.002,0.001 0.001,0.001 0.001,0.002 0.002,0.002 0,0.001 0.001,0.002 0.002,0.002 0,0.001 0.001,0.002 0.002,0.002 0,0.001 0.001,0.002 0.002,0.002 0,0.001 0.001,0.002 0.002,0.002 0,0.001 0.001,0.001 0.002,0.002 0,0.001 0.001,0.002 0.001,0.002 0.001,0.001 0.002,0.001 0.002,0.002 0.001,0.001 0.002,0.002 0.003,0.003 0.001,0 0.001,0.001 0.002,0.002 0.001,0.001 0.002,0.002 0.003,0.003 0.001,0 0.001,0.001 0.002,0.001 0,0.001 0.001,0.002 0.002,0.003 0,0 0.001,0.001 0.002,0.002 0,0 0.001,0.001 0.002,0.002 0,0 0.001,0.001 0.002,0.002 0,0 0.001,0.001 0.002,0.002 0,0 0.001,0.001 0.001,0.002 0.001,0 0.002,0.001 0.002,0.002 0.001,0 0.002,0.001 0.002,0.002 0.001,0 0.002,0.001 0.002,0.001 0.001,0.002 0.003,0.003 0.004,0.004 0.001,0.001 0.001,0.002 0.002,0.002 0,0.001 0.001,0.002 0.002,0.002 0,0.001 0.001,0.001 0.002,0.002 0,0.001 0.001,0.001 0.002,0.002 0,0.001 0.001,0.001 0.001,0.002 0.001,0.001 0.002,0.001 0.002,0.002 0.001,0.001 0.002,0.001 0.002,0.002 0.001,0.001 0.002,0.002 0.002,0.002 0.001,0.001 0.001,0.001 0.002,0.002 0.001,0.001 0.001,0.001 0.002,0.002 0.001,0.001 0.001,0.001 0.002,0.002 0.001,0.001 0.003,0.003 0.004,0.004 0,0.001 0.001,0.001 0.001,0.002 0.001,0.001 0.002,0.001 0.003,0.002 0,0.001 0.001,0.001 0.001,0.002 0.001,0.001 0.002,0.001 0.002,0.002 0.001,0.001 0.001,0.001 0.002,0.002 0.001,0.001 0.002,0.001 0.002,0.002 0.001,0.001 0.001,0.001 0.002,0.002 0.001,0 0.001,0.001 0.002,0.002 0,0.001 0.001,0.001 0.002,0.002 0,0.001 0.001,0.001 0.002,0.002 0,0.001 0.001,0.001 0.001,0.002 0.003,0.003 0.006,0.005 0.008,0.008 0.001,0.001 0.001,0.001 0.002,0.002 0.001,0 0.001,0.001 0.002,0.002 0,0.001 0.001,0.001 0.002,0.002 0,0.001 0.001,0.001 0.002,0.002 0,0 0.001,0.001 0.001,0.002 0.001,0.001 0.002,0.001 0.003,0.002 0,0 0.001,0.001 0.001,0.002 0.001,0.001 0.001,0.001 0.002,0.002 0.001,0.001 0.001,0.001 0.002,0.002 0.002,0.003 0.005,0.005 0.008,0.008 0,0.001 0.001,0.001 0.001,0.002 0.001,0.001 0.002,0.001 0.002,0.002 0.001,0.001 0.001,0.001 0.002,0.002 0.001,0.001 0.001,0.001 0.002,0.002 0,0.001 0.001,0.001 0.002,0.002 0,0.001 0.001,0.001 0.002,0.002 0,0.001 0.001,0.001 0.001,0.002 0.001,0.001 0.002,0.002 0.003,0.002 0,0.001 0,0.001 0.001,0.002 0.003,0.003 0.005,0.006 0.008,0.009 0,0 0.001,0.001 0.001,0.001 0.001,0.001 0.002,0.002 0.003,0.003 0,0 0.001,0.001 0.001,0.001 0.001,0.001 0.002,0.002 0.002,0.003 0.001,0 0.001,0.001 0.002,0.001 0.001,0.001 0.001,0.002 0.002,0.003 0,0 0.001,0.001 0.001,0.001 0.001,0.001 0.002,0.002 0.003,0.003 0,0 0.001,0.001 0.001,0.001 0.001,0.001 0.002,0.002 0.002,0.003 0,0 0,0 0.001,0 0.002,0.003 0.004,0.005 0.006,0.007l0 0.001c0.001,0.001 0.002,0.002 0.003,0.002 0,0.001 0.001,0.001 0.001,0.002 0.001,0 0.002,0.002 0.002,0.002 0.001,0.001 0.001,0.001 0.002,0.002 0.001,0.001 0.001,0.002 0.002,0.002 0,0.001 0.001,0.001 0.001,0.002 0.001,0.001 0.002,0.002 0.003,0.003 0,0 0,0 0.001,0.001 0.001,0.001 0.001,0.002 0.002,0.003 0,0 0.001,0 0.001,0 0.003,0.004 0.006,0.007 0.009,0.011 0,0 0,0 0.001,0 0.001,0.001 0.001,0.002 0.002,0.003 0.001,0.001 0.001,0.001 0.001,0.002 0.001,0.001 0.002,0.002 0.003,0.002 0,0.001 0.001,0.001 0.001,0.002 0.001,0.001 0.002,0.002 0.003,0.003 0,0 0,0 0,0 0.001,0.002 0.002,0.003 0.003,0.004l0 0c0.003,0.003 0.007,0.007 0.01,0.011 0,0 0,0 0.001,0.001 0,0.001 0.001,0.002 0.002,0.002 0,0.001 0.001,0.001 0.001,0.002 0.001,0.001 0.002,0.002 0.003,0.003 0,0 0,0 0.001,0.001 0.001,0.001 0.001,0.002 0.002,0.003 0.001,0 0.001,0 0.001,0.001 0.004,0.004 0.008,0.009 0.012,0.014 0.001,0 0.001,0.001 0.001,0.001 0.001,0.001 0.002,0.002 0.003,0.003 0,0 0,0.001 0.001,0.001 0,0.001 0.001,0.002 0.002,0.003 0.001,0 0.001,0.001 0.001,0.001 0.001,0.001 0.002,0.002 0.003,0.003 0,0 0,0.001 0.001,0.001 0.003,0.004 0.006,0.008 0.009,0.011 0.649,0.766 1.105,1.785 1.203,3.12 0.002,0.023 0.004,0.046 0.005,0.069l0 0c0.001,0.009 0.001,0.018 0.002,0.027 0,0.003 0,0.005 0,0.007l0 0.001c0,0.002 0,0.004 0.001,0.006l0 0c0,0.007 0,0.014 0.001,0.021l0 0.001c0,0.002 0,0.004 0,0.006l0 0.001c0,0.002 0,0.004 0,0.006l0 0.001c0.001,0.006 0.001,0.013 0.001,0.02l0 0.001c0.001,0.002 0.001,0.004 0.001,0.006l0 0.001c0,0.002 0,0.004 0,0.006 0,0 0,0 0,0.001 0.001,0.009 0.001,0.018 0.002,0.027 0,0 0,0.001 0,0.001 0,0.002 0,0.004 0,0.006l0 0.001c0,0.009 0.001,0.018 0.001,0.028l0 0c0,0.002 0,0.004 0,0.007l0 0c0.001,0.009 0.001,0.019 0.001,0.028l0 0.001c0,0.002 0.001,0.004 0.001,0.006l0 0c0,0.003 0,0.005 0,0.007l0 0c0,0.008 0,0.014 0.001,0.021l0 0.001c0,0.002 0,0.004 0,0.006 0,0.001 0,0.001 0,0.001 0,0.002 0,0.005 0,0.007l0 0c0,0.007 0,0.014 0.001,0.021 0,0 0,0.001 0,0.001 0,0.002 0,0.004 0,0.006 0,0.001 0,0 0,0.001 0,0.002 0,0.004 0,0.006 0,0 0,0.001 0,0.001 0,0.007 0,0.014 0,0.021l0 0.001c0,0.002 0,0.004 0.001,0.006 0,0 0,0 0,0.001 0,0.002 0,0.004 0,0.006 0,0 0,0.001 0,0.001 0,0.007 0,0.014 0,0.021l0 0c0,0.003 0,0.005 0,0.007 0,0 0,0 0,0.001 0,0.002 0,0.004 0,0.006 0,0 0,0.001 0,0.001 0,0.007 0,0.014 0.001,0.021 0,0 0,0.001 0,0.001 0,0.002 0,0.004 0,0.006 0,0 0,0.001 0,0.001 0,0.002 0,0.004 0,0.006 0,0 0,0.001 0,0.001 0,0.003 0,0.005 0,0.007l0 0c0,0.005 0,0.01 0,0.015 0,0 0,0 0,0 0,0.002 0,0.004 0,0.006 0,0.001 0,0.001 0,0.002 0,0.002 0,0.003 0,0.005 0,0.001 0,0.001 0,0.002 0,0.002 0,0.004 0,0.006l0 0.001c0,0.004 0,0.009 0,0.014 0,0 0,0 0,0.001 0,0.002 0,0.004 0,0.006 0,0 0,0.001 0,0.001 0,0.002 0,0.004 0,0.006 0,0 0,0.001 0,0.001 0,0.002 0,0.004 0,0.006 0,0 0,0.001 0,0.001 0,0.005 0,0.01 0,0.014 0,0.001 0,0.001 0,0.001 0,0.002 0,0.004 0,0.006 0,0.001 0,0.001 0,0.002 0,0.002 0,0.003 0,0.005 0,0.001 0,0.002 0,0.002 0,0.002 0,0.004 0,0.005 0,0.001 0,0.002 0,0.002 0,0.005 0,0.009 0,0.014 0,0 0,0.001 0,0.001 0,0.002 0,0.004 0,0.006 0,0.001 0,0.001 0,0.002 0,0.002 0,0.003 0,0.005 0,0.001 0,0.001 0,0.002 0,0.002 0,0.003 0,0.005 0,0.001 0,0.001 0,0.002 0,0.004 0,0.009 0,0.014 0,0 0,0.001 0,0.001 0,0.002 0,0.004 -0.001,0.006 0,0.001 0,0.001 0,0.002 0,0.001 0,0.003 0,0.005 0,0 0,0.001 0,0.002 0,0.002 0,0.003 0,0.005 0,0.001 0,0.001 0,0.002 0,0.002 0,0.004 0,0.006 0,0 0,0.001 0,0.001 0,0.002 0,0.005 0,0.007 0,0 0,0 0,0.001 0,0.002 0,0.004 0,0.006 0,0 0,0.001 0,0.002 0,0.001 0,0.003 0,0.005 0,0.001 0,0.001 0,0.002 0,0.002 0,0.003 0,0.005 0,0.001 0,0.002 0,0.002 0,0.002 0,0.004 0,0.006 0,0 0,0.001 0,0.001 -0.001,0.002 -0.001,0.005 -0.001,0.007l0 0c0,0.003 0,0.005 0,0.007 0,0.001 0,0.001 0,0.002 0,0.002 0,0.003 0,0.005 0,0.001 0,0.002 0,0.002 0,0.002 0,0.004 0,0.005 0,0.001 0,0.002 0,0.002 0,0.002 0,0.004 0,0.006 0,0 0,0.001 0,0.001 0,0.003 0,0.005 0,0.007l0 0.001c0,0.002 0,0.004 -0.001,0.006 0,0.001 0,0.001 0,0.002 0,0.002 0,0.004 0,0.005 0,0.001 0,0.002 0,0.003 0,0.001 0,0.003 0,0.005 0,0 0,0.001 0,0.002 0,0.002 0,0.003 0,0.005 0,0 0,0.002 0,0.002 0,0.005 0,0.009 -0.001,0.014 0,0.001 0,0.001 0,0.002 0,0.002 0,0.003 0,0.005 0,0.001 0,0.002 0,0.002 0,0.002 0,0.003 0,0.005 0,0.001 0,0.002 0,0.002 0,0.002 0,0.004 0,0.006 0,0 0,0 0,0.002 -0.001,0.004 -0.001,0.009 -0.001,0.014 0,0 0,0.001 0,0.002 0,0.001 0,0.003 0,0.005 0,0.001 0,0.001 0,0.002 0,0.002 0,0.003 0,0.005 0,0.001 0,0.001 0,0.002 -0.001,0.002 -0.001,0.004 -0.001,0.005 0,0.001 0,0.001 0,0.002 0,0.002 0,0.005 0,0.007l0 0c0,0.003 0,0.005 0,0.007 0,0.001 0,0.002 0,0.002 0,0.002 0,0.004 -0.001,0.005 0,0.001 0,0.002 0,0.003 0,0.001 0,0.003 0,0.004 0,0.001 0,0.002 0,0.003 0,0.002 0,0.003 0,0.005 0,0.001 0,0.001 0,0.002 0,0.002 0,0.004 0,0.007 0,0 0,0 0,0 -0.001,0.002 -0.001,0.005 -0.001,0.007 0,0.001 0,0.002 0,0.002 0,0.002 0,0.004 0,0.005 0,0.001 0,0.002 0,0.003 0,0.001 0,0.003 -0.001,0.004 0,0.001 0,0.002 0,0.003 0,0.002 0,0.003 0,0.005 0,0.001 0,0.001 0,0.002 0,0.002 0,0.004 0,0.006 0,0 0,0.001 0,0.001 0,0.003 -0.001,0.005 -0.001,0.007 0,0.001 0,0.002 0,0.002 0,0.002 0,0.004 0,0.005 0,0.001 0,0.002 0,0.003 0,0.002 0,0.003 0,0.005 0,0 0,0.002 0,0.002 0,0.002 -0.001,0.003 -0.001,0.005 0,0.001 0,0.002 0,0.003 0,0.001 0,0.003 0,0.005 0,0 0,0.001 0,0.002 0,0.002 0,0.004 0,0.007 0,0 -0.001,0.001 -0.001,0.002 0,0.001 0,0.003 0,0.005 0,0.001 0,0.001 0,0.002 0,0.002 0,0.003 0,0.005 0,0.001 0,0.002 0,0.003 0,0.001 -0.001,0.003 -0.001,0.004 0,0.001 0,0.002 0,0.003 0,0.002 0,0.003 0,0.005 0,0 0,0.001 0,0.002 0,0.002 0,0.005 -0.001,0.007 0,0.001 0,0.001 0,0.002 0,0.002 0,0.003 0,0.005 0,0.001 0,0.002 0,0.003 0,0.002 0,0.003 0,0.004 0,0.001 -0.001,0.002 -0.001,0.003 0,0.002 0,0.003 0,0.004 0,0.001 0,0.002 0,0.003 0,0.002 0,0.003 0,0.005 0,0.001 0,0.002 0,0.003 0,0.001 -0.001,0.004 -0.001,0.006 0,0.001 0,0.002 0,0.003 0,0.001 0,0.003 0,0.005 0,0.001 0,0.002 0,0.003 0,0.001 -0.001,0.002 -0.001,0.004 0,0.001 0,0.002 0,0.003 0,0.001 0,0.003 0,0.004 0,0.001 0,0.002 0,0.003 0,0.002 0,0.003 -0.001,0.004 0,0.001 0,0.002 0,0.003 0,0.002 0,0.004 0,0.006 0,0.001 0,0.002 0,0.003 -0.001,0.002 -0.001,0.004 -0.001,0.005 0,0.001 0,0.002 0,0.003 0,0.002 0,0.003 0,0.005 0,0.001 0,0.002 0,0.003 -0.001,0.001 -0.001,0.002 -0.001,0.004 0,0.001 0,0.002 0,0.003 0,0.001 0,0.003 0,0.004 0,0.001 0,0.002 0,0.003 0,0.002 -0.001,0.003 -0.001,0.005 0,0.001 0,0.002 0,0.004 0,0.001 0,0.003 0,0.005 0,0.001 0,0.002 -0.001,0.003 0,0.002 0,0.003 0,0.004 0,0.001 0,0.003 0,0.004 0,0.001 0,0.002 0,0.004 0,0.001 -0.001,0.002 -0.001,0.003 0,0.001 0,0.003 0,0.004 0,0.001 0,0.002 0,0.003 0,0.002 0,0.003 -0.001,0.005 0,0.001 0,0.002 0,0.003 0,0.002 0,0.004 0,0.006 0,0.001 0,0.002 0,0.003 -0.001,0.002 -0.001,0.003 -0.001,0.004 0,0.001 0,0.003 0,0.004 0,0.001 0,0.002 0,0.004 0,0.001 0,0.002 -0.001,0.003 0,0.001 0,0.003 0,0.004 0,0.001 0,0.002 0,0.003 0,0.002 0,0.004 0,0.006 -0.001,0 -0.001,0.001 -0.001,0.001 0,0.003 0,0.005 0,0.007 0,0.001 0,0.002 0,0.002 0,0.002 -0.001,0.004 -0.001,0.006 0,0.001 0,0.002 0,0.003 0,0.001 0,0.002 0,0.004 0,0.001 -0.001,0.002 -0.001,0.003 0,0.001 0,0.003 0,0.004 0,0.001 0,0.002 0,0.003 0,0.002 -0.001,0.004 -0.001,0.005 0,0.001 0,0.002 0,0.003 0,0.002 0,0.004 0,0.007 0,0 -0.001,0.002 -0.001,0.002 0,0.002 0,0.004 0,0.005 0,0.001 0,0.002 0,0.003 0,0.001 0,0.003 -0.001,0.004 0,0.002 0,0.002 0,0.004 0,0.001 0,0.002 0,0.004 0,0.001 -0.001,0.002 -0.001,0.003 0,0.001 0,0.003 0,0.004 0,0.001 0,0.002 0,0.003 0,0.002 -0.001,0.005 -0.001,0.007 0,0.001 0,0.002 0,0.003 0,0.002 0,0.003 0,0.004 0,0.001 -0.001,0.003 -0.001,0.004 0,0.001 0,0.002 0,0.004 0,0.001 0,0.002 0,0.003 0,0.001 -0.001,0.003 -0.001,0.004 0,0.001 0,0.002 0,0.003 0,0.002 0,0.003 0,0.005 0,0.001 -0.001,0.002 -0.001,0.003 0,0.002 0,0.004 0,0.007 0,0 -0.001,0.002 -0.001,0.003 0,0.001 0,0.002 0,0.004 0,0.001 0,0.002 0,0.003 0,0.002 -0.001,0.003 -0.001,0.004 0,0.002 0,0.003 0,0.004 0,0.001 0,0.002 0,0.004 0,0.001 -0.001,0.002 -0.001,0.003 0,0.001 0,0.003 0,0.004 0,0.002 0,0.002 0,0.004 -0.001,0.002 -0.001,0.004 -0.001,0.006 0,0.001 0,0.002 0,0.003 0,0.002 -0.001,0.003 -0.001,0.005 0,0.001 0,0.002 0,0.003 0,0.001 0,0.003 -0.001,0.004 0,0.001 0,0.002 0,0.004 0,0.001 0,0.002 0,0.003 0,0.001 0,0.003 -0.001,0.004 0,0.001 0,0.002 0,0.004 0,0.001 0,0.002 0,0.003 0,0.002 0,0.003 -0.001,0.005 0,0.002 0,0.003 0,0.005 0,0.002 0,0.003 -0.001,0.005 0,0.001 0,0.002 0,0.003 0,0.001 0,0.003 0,0.004 0,0.001 -0.001,0.003 -0.001,0.004 0,0.001 0,0.002 0,0.003 0,0.002 0,0.003 -0.001,0.004 0,0.001 0,0.003 0,0.004 0,0.001 0,0.002 0,0.004 0,0.001 -0.001,0.002 -0.001,0.004 0,0.001 0,0.003 0,0.005 0,0.001 -0.001,0.003 -0.001,0.005 0,0.001 0,0.002 0,0.003 0,0.002 0,0.003 -0.001,0.004 0,0.001 0,0.003 0,0.004 0,0.001 0,0.002 0,0.004 0,0.001 -0.001,0.002 -0.001,0.003 0,0.001 0,0.003 0,0.004 0,0.002 0,0.002 -0.001,0.004 0,0.001 0,0.003 0,0.004 0,0.001 0,0.003 -0.001,0.005 0,0.001 0,0.003 0,0.005 0,0.001 0,0.002 -0.001,0.003 0,0.002 0,0.003 0,0.004 0,0.001 0,0.003 0,0.004 0,0.001 -0.001,0.003 -0.001,0.004 0,0.001 0,0.002 0,0.003 0,0.002 -0.001,0.003 -0.001,0.004 0,0.001 0,0.003 0,0.004 0,0.001 0,0.003 0,0.004 -0.001,0.001 -0.001,0.002 -0.001,0.003 0,0.003 0,0.005 -0.001,0.007 0,0.002 0,0.002 0,0.004 0,0.001 0,0.003 0,0.004 -0.001,0.001 -0.001,0.003 -0.001,0.004 0,0.001 0,0.002 0,0.003 0,0.002 -0.001,0.003 -0.001,0.004 0,0.001 0,0.003 0,0.004 0,0.001 -0.001,0.003 -0.001,0.003 0,0.002 0,0.003 0,0.005 0,0.001 0,0.002 -0.001,0.003 0,0.002 0,0.005 0,0.007 0,0.001 0,0.002 -0.001,0.003 0,0.002 0,0.003 0,0.005 0,0.001 0,0.002 -0.001,0.003 0,0.001 0,0.003 0,0.004 0,0.001 0,0.002 0,0.004 -0.001,0.001 -0.001,0.002 -0.001,0.004 0,0.001 0,0.002 0,0.003 -0.001,0.001 -0.001,0.003 -0.001,0.004 0,0.002 0,0.003 0,0.003 -0.001,0.003 -0.001,0.005 -0.001,0.008 0,0.001 0,0.002 -0.001,0.003 0,0.001 0,0.003 0,0.004 0,0.001 0,0.003 0,0.004 -0.001,0.001 -0.001,0.002 -0.001,0.004 0,0.001 0,0.002 0,0.003 -0.001,0.002 -0.001,0.003 -0.001,0.004 0,0.002 0,0.003 0,0.004 -0.001,0.001 -0.001,0.003 -0.001,0.004 0,0.002 0,0.002 0,0.003 -0.001,0.003 -0.001,0.005 -0.001,0.008 0,0 -0.001,0.001 -0.001,0.002 0,0.002 0,0.003 0,0.005 0,0.001 0,0.002 -0.001,0.003 0,0.002 0,0.003 0,0.005 0,0.001 -0.001,0.002 -0.001,0.003 0,0.001 0,0.003 0,0.004 0,0.001 0,0.003 -0.001,0.004 0,0.001 0,0.003 0,0.004 0,0.001 0,0.002 -0.001,0.003 0,0.002 0,0.004 0,0.006 0,0.002 -0.001,0.003 -0.001,0.004 0,0.002 0,0.003 0,0.005 -0.001,0.001 -0.001,0.003 -0.001,0.004 0,0.001 0,0.002 -0.001,0.004 0,0.001 0,0.002 0,0.003 0,0.002 0,0.003 0,0.004 -0.001,0.002 -0.001,0.003 -0.001,0.004 0,0.001 0,0.003 -0.001,0.004 0,0.001 0,0.002 0,0.003 0,0.002 0,0.005 -0.001,0.007 0,0 0,0.002 0,0.002 0,0.002 -0.001,0.004 -0.001,0.006 0,0.001 0,0.002 0,0.004 -0.001,0.001 -0.001,0.002 -0.001,0.004 0,0.001 0,0.002 0,0.003 -0.001,0.002 -0.001,0.003 -0.001,0.005 0,0.001 0,0.002 0,0.003 -0.001,0.001 -0.001,0.003 -0.001,0.005 0,0.001 0,0.002 0,0.003 -0.001,0.002 -0.001,0.003 -0.001,0.005 0,0.001 -0.001,0.002 -0.001,0.003 0,0.002 0,0.005 -0.001,0.007 0,0.001 0,0.002 0,0.003 0,0.001 0,0.003 -0.001,0.004 0,0.001 0,0.003 0,0.004 0,0.001 0,0.003 -0.001,0.004 0,0.001 0,0.002 0,0.003 0,0.002 -0.001,0.003 -0.001,0.005 0,0.001 0,0.002 0,0.003 0,0.002 -0.001,0.003 -0.001,0.005 0,0.001 0,0.002 0,0.003 -0.001,0.002 -0.001,0.005 -0.001,0.007 -0.001,0.001 -0.001,0.002 -0.001,0.003 0,0.002 0,0.003 0,0.005 -0.001,0.001 -0.001,0.002 -0.001,0.003 0,0.002 0,0.003 -0.001,0.004 0,0.002 0,0.003 0,0.004 0,0.001 -0.001,0.003 -0.001,0.005 0,0.001 0,0.001 0,0.003 0,0.001 -0.001,0.003 -0.001,0.005 0,0.001 0,0.002 0,0.002 -0.001,0.003 -0.001,0.005 -0.001,0.008 -0.001,0.001 -0.001,0.002 -0.001,0.003 0,0.001 0,0.003 0,0.004 -0.001,0.002 -0.001,0.003 -0.001,0.004 0,0.001 -0.001,0.003 -0.001,0.004 0,0.001 0,0.003 0,0.004 0,0.001 -0.001,0.003 -0.001,0.004 0,0.001 0,0.002 0,0.003 -0.001,0.002 -0.001,0.004 -0.001,0.006 0,0 0,0.001 -0.001,0.002 0,0.003 0,0.005 -0.001,0.008 0,0 0,0.001 0,0.002 0,0.002 -0.001,0.004 -0.001,0.005 0,0.001 0,0.002 0,0.003 -0.001,0.002 -0.001,0.004 -0.001,0.005 0,0.001 0,0.002 0,0.003 -0.001,0.002 -0.001,0.003 -0.001,0.005 0,0.001 -0.001,0.002 -0.001,0.003 0,0.002 0,0.003 0,0.005 -0.001,0.001 -0.001,0.002 -0.001,0.003 0,0.003 -0.001,0.005 -0.001,0.008 0,0 0,0.001 0,0.001 -0.001,0.002 -0.001,0.005 -0.001,0.006 0,0.001 -0.001,0.002 -0.001,0.003 0,0.002 0,0.004 0,0.005 -0.001,0.001 -0.001,0.002 -0.001,0.003 0,0.002 0,0.003 -0.001,0.005 0,0.001 0,0.002 0,0.003 -0.001,0.002 -0.001,0.004 -0.001,0.006 0,0 0,0.001 0,0.002 -0.001,0.002 -0.001,0.005 -0.002,0.008 0,0 0,0.001 0,0.001 0,0.002 -0.001,0.004 -0.001,0.006 0,0.002 0,0.002 0,0.003 -0.001,0.002 -0.001,0.004 -0.001,0.005 0,0.001 -0.001,0.002 -0.001,0.004 0,0.001 0,0.003 0,0.004 -0.001,0.001 -0.001,0.002 -0.001,0.003 0,0.002 -0.001,0.004 -0.001,0.006 0,0.001 0,0.001 0,0.002 -0.001,0.003 -0.001,0.006 -0.002,0.008 0,0 0,0.001 0,0.001 0,0.002 0,0.004 -0.001,0.007 0,0.001 0,0.001 0,0.003 0,0.001 -0.001,0.003 -0.001,0.005 0,0.001 0,0.002 -0.001,0.003 0,0.001 0,0.003 0,0.005 0,0.001 -0.001,0.001 -0.001,0.003 0,0.001 0,0.003 -0.001,0.005 0,0.001 0,0.001 0,0.002 -0.001,0.003 -0.001,0.006 -0.001,0.008 -0.001,0.002 -0.001,0.004 -0.001,0.006 0,0.001 -0.001,0.001 -0.001,0.002 0,0.001 0,0.003 0,0.004 0,0.001 -0.001,0.001 -0.001,0.002 0,0.004 -0.001,0.008 -0.002,0.012 0,0 0,0.001 0,0.001 0,0.002 0,0.003 -0.001,0.005 0,0.001 0,0.001 0,0.001 -0.001,0.004 -0.001,0.008 -0.002,0.012 0,0.001 0,0.001 0,0.001 -0.001,0.002 -0.001,0.004 -0.001,0.005 0,0.001 0,0.001 0,0.002 -0.001,0.004 -0.002,0.008 -0.002,0.012 0,0 0,0 0,0 -0.001,0.002 -0.001,0.004 -0.002,0.006 0,0 0,0.001 0,0.001 0,0.004 -0.001,0.008 -0.002,0.012l0 0.001c0,0.001 -0.001,0.003 -0.001,0.005 0,0.001 0,0.001 0,0.001 -0.001,0.004 -0.002,0.008 -0.002,0.012l0 0.001c-0.001,0.002 -0.001,0.004 -0.001,0.006 0,0 0,0 0,0 -0.002,0.006 -0.003,0.013 -0.004,0.019l0 0c-0.001,0.007 -0.002,0.013 -0.003,0.019l0 0c-0.035,0.189 -0.075,0.371 -0.119,0.547l0 0c-0.002,0.008 -0.004,0.015 -0.006,0.023 -0.003,0.012 -0.006,0.024 -0.009,0.036l0 0c-0.001,0.004 -0.002,0.007 -0.003,0.011l0 0.001c-0.001,0.001 -0.001,0.003 -0.001,0.005l-0.001 0c-0.001,0.004 -0.002,0.008 -0.003,0.012l0 0c0,0.002 -0.001,0.004 -0.001,0.005 0,0.001 0,0.001 0,0.001 -0.001,0.004 -0.002,0.008 -0.003,0.011l0 0.001c-0.001,0.002 -0.001,0.003 -0.002,0.005l0 0c-0.001,0.004 -0.002,0.008 -0.003,0.012l0 0c0,0.002 -0.001,0.003 -0.001,0.005 0,0.001 0,0.001 -0.001,0.001 0,0.002 0,0.003 -0.001,0.005l0 0.001c-0.001,0.002 -0.001,0.003 -0.002,0.005 0,0 0,0 0,0.001 0,0.001 -0.001,0.003 -0.001,0.004 0,0.001 0,0.001 0,0.002 -0.001,0.001 -0.001,0.003 -0.002,0.004 0,0.001 0,0.001 0,0.001 0,0.002 -0.001,0.004 -0.001,0.006l0 0c-0.001,0.001 -0.001,0.003 -0.002,0.005 0,0 0,0 0,0.001 0,0.002 -0.001,0.003 -0.002,0.005 0,0 0,0 0,0 0,0.002 -0.001,0.004 -0.001,0.006l0 0c-0.001,0.002 -0.001,0.003 -0.002,0.005 0,0.001 0,0.001 0,0.001 0,0.002 -0.001,0.003 -0.001,0.005 0,0 0,0.001 -0.001,0.001 -0.001,0.003 -0.001,0.007 -0.002,0.01 -0.001,0.001 -0.001,0.001 -0.001,0.002 0,0.001 -0.001,0.002 -0.001,0.004 0,0 0,0.001 0,0.001 -0.001,0.002 -0.001,0.004 -0.002,0.005l0 0.001c0,0.001 -0.001,0.003 -0.001,0.005 0,0 0,0 -0.001,0.001 0,0.001 0,0.003 -0.001,0.004 0,0.001 0,0.001 0,0.001 -0.001,0.004 -0.002,0.007 -0.003,0.011 0,0 0,0.001 0,0.001 -0.001,0.002 -0.001,0.003 -0.002,0.004 0,0.001 0,0.001 0,0.002 -0.001,0.001 -0.001,0.003 -0.002,0.005 0,0.001 -0.001,0.003 -0.001,0.005 0,0 0,0.001 0,0.001 -0.001,0.002 -0.001,0.003 -0.002,0.004 0,0 0,0.001 0,0.002 -0.001,0.003 -0.002,0.006 -0.003,0.01 0,0 0,0.001 0,0.002 -0.001,0.001 -0.001,0.002 -0.002,0.003 0,0.001 0,0.001 0,0.002 0,0.001 -0.001,0.003 -0.001,0.004 0,0 0,0.001 -0.001,0.001 0,0.002 0,0.003 -0.001,0.005 0,0.001 0,0.001 0,0.002 -0.001,0.001 -0.001,0.002 -0.001,0.003 -0.001,0.001 -0.001,0.001 -0.001,0.002 0,0.001 -0.001,0.003 -0.001,0.004 0,0 0,0.001 0,0.001 -0.001,0.002 -0.001,0.003 -0.002,0.005 0,0.001 0,0.001 0,0.002 -0.001,0.001 -0.001,0.002 -0.001,0.003 -0.001,0.001 -0.001,0.001 -0.001,0.002 0,0.001 -0.001,0.002 -0.001,0.004 0,0 0,0.001 0,0.001 -0.001,0.002 -0.001,0.003 -0.002,0.005 0,0 0,0.001 -0.001,0.002 0,0.001 0,0.002 0,0.003 -0.001,0.001 -0.001,0.001 -0.001,0.002 0,0.001 -0.001,0.002 -0.001,0.004 0,0 0,0.001 -0.001,0.001 0,0.002 0,0.003 -0.001,0.005 0,0 0,0.001 -0.001,0.002 0,0.001 0,0.002 0,0.003 -0.001,0 -0.001,0.001 -0.001,0.002 0,0.001 -0.001,0.002 -0.001,0.003 0,0.001 0,0.001 -0.001,0.002 0,0.002 0,0.003 -0.001,0.004 0,0.001 -0.001,0.002 -0.001,0.003 0,0.001 0,0.002 -0.001,0.002 0,0.002 0,0.002 0,0.003 -0.001,0.001 -0.001,0.002 -0.001,0.003 0,0.001 -0.001,0.001 -0.001,0.002 0,0.001 -0.001,0.003 -0.001,0.004 0,0.001 -0.001,0.002 -0.001,0.003 0,0.001 0,0.002 -0.001,0.002 0,0.001 0,0.002 0,0.003 -0.001,0.001 -0.001,0.002 -0.001,0.002 0,0.001 -0.001,0.002 -0.001,0.003 0,0.001 -0.001,0.003 -0.001,0.004 -0.001,0.001 -0.001,0.002 -0.001,0.003 0,0 -0.001,0.001 -0.001,0.002 0,0.001 0,0.002 -0.001,0.003 0,0.001 0,0.001 0,0.002 -0.001,0.001 -0.001,0.002 -0.001,0.003 -0.001,0.001 -0.001,0.002 -0.001,0.003 -0.001,0.001 -0.001,0.002 -0.001,0.004 -0.001,0 -0.001,0.001 -0.001,0.002 0,0.001 -0.001,0.002 -0.001,0.003 0,0 0,0.001 0,0.001 -0.001,0.001 -0.001,0.003 -0.001,0.003 0,0 -0.001,0.001 -0.001,0.001 0,0.002 -0.001,0.005 -0.002,0.007 0,0 0,0.001 0,0.001 -0.001,0.001 -0.001,0.002 -0.001,0.003 0,0.001 0,0.001 -0.001,0.002 0,0.001 0,0.002 -0.001,0.003 0,0.001 0,0.001 0,0.001 -0.001,0.003 -0.001,0.005 -0.002,0.007 0,0 0,0.001 0,0.001 -0.001,0.001 -0.001,0.002 -0.001,0.003 0,0.001 -0.001,0.001 -0.001,0.002 0,0.001 -0.001,0.002 -0.001,0.003 0,0 0,0 0,0.001 -0.001,0.002 -0.002,0.004 -0.002,0.007 0,0 -0.001,0 -0.001,0 0,0.002 0,0.003 -0.001,0.004 0,0 0,0.001 0,0.001 -0.001,0.001 -0.001,0.002 -0.001,0.003 0,0.001 0,0.001 -0.001,0.001 0,0.003 -0.001,0.005 -0.002,0.007 0,0 0,0.001 0,0.001 0,0.001 -0.001,0.002 -0.001,0.004 0,0 0,0 0,0.001 -0.001,0.001 -0.001,0.002 -0.002,0.003 0,0 0,0 0,0.001 -0.001,0.002 -0.001,0.005 -0.002,0.007 0,0 0,0 0,0 -0.001,0.002 -0.001,0.003 -0.002,0.004 0,0.001 0,0.001 0,0.001 0,0.001 -0.001,0.003 -0.001,0.004 0,0 0,0 0,0 -0.001,0.004 -0.003,0.008 -0.004,0.012 0,0 0,0 0,0 0,0.002 -0.001,0.003 -0.001,0.004l0 0c-0.002,0.004 -0.003,0.009 -0.004,0.013l0 0c-0.001,0.001 -0.001,0.003 -0.002,0.004l0 0c-0.105,0.318 -0.227,0.612 -0.363,0.882 0,0 0,0 0,0 -0.003,0.004 -0.005,0.009 -0.008,0.014 0,0 0,0 0,0 -0.001,0.003 -0.003,0.006 -0.005,0.01 0,0 0,0 0,0 0,0.001 -0.001,0.002 -0.001,0.003 0,0 0,0 -0.001,0.001 -0.222,0.436 -0.049,0.97 0.387,1.192 0.129,0.066 0.267,0.097 0.402,0.097 0.323,0 0.634,-0.176 0.79,-0.484 0.399,-0.78 0.683,-1.671 0.846,-2.648 0.565,-3.388 -0.495,-5.49 -1.483,-6.656 -1.83,-2.16 -4.505,-2.603 -5.816,-2.684 -0.403,-1.853 -1.51,-4.666 -4.541,-6.387 -0.004,-0.001 -0.006,-0.003 -0.009,-0.005 -0.003,-0.001 -0.006,-0.003 -0.009,-0.005 -1.495,-0.844 -3.289,-1.313 -5.332,-1.394 -0.211,-0.008 -0.422,-0.013 -0.627,-0.013z"/>
    </g>
    <path class="fil8 str1" d="M43.428 53.147c0,0 3.767,-4.616 13.517,-1.735"/>
    <path class="fil7" d="M47.417 64.623c0,0 -0.148,-9.334 0.886,-9.407 1.034,-0.074 0.886,9.407 0.886,9.407l-1.772 0z"/>
    <path class="fil7" d="M51.533 64.623c0,0 -0.148,-9.334 0.886,-9.407 1.034,-0.074 0.886,9.407 0.886,9.407l-1.772 0z"/>
    <path class="fil7" d="M55.431 64.623c0,0 -0.148,-9.334 0.886,-9.407 1.034,-0.074 0.886,9.407 0.886,9.407l-1.772 0z"/>
    <path class="fil8 str2" d="M59.019 43.781c0,0 1.426,-2.999 4.376,-2.95"/>
    <path class="fil8 str2" d="M46.433 42.031c0,0 -0.601,-2.281 -3.005,-2.035"/>
   </g>
   <g>
    <g>
     <path class="fil9" d="M33.687 53.636c-0.753,-1.045 -5.97,-8.112 -5.97,-8.112l-0.049 0.015 -0.033 0.036 3.849 7.156c0,0 0.063,0.112 -0.063,0.19 -0.127,0.079 -0.195,-0.028 -0.195,-0.028l-4.727 -6.605 -0.052 0.012 -0.035 0.042 3.819 7.168c0,0 0.065,0.112 -0.051,0.184 -0.115,0.072 -0.189,-0.035 -0.189,-0.035l-4.707 -6.614 -0.052 0.015 -0.036 0.04 3.803 7.181c0,0 0.061,0.111 -0.061,0.188 -0.122,0.076 -0.198,-0.028 -0.198,-0.028l-4.684 -6.636 -0.048 0.015 -0.034 0.037c0,0 3.998,7.826 4.597,8.968 0.056,0.108 0.159,0.133 0.291,0.093 0.447,-0.133 1.611,-0.288 2.903,0.543 1.373,0.832 9.039,15.997 10.633,19.321 0.396,0.827 1.43,1.702 3.077,1.635l0 0c0.79,-1.451 0.466,-2.769 -0.096,-3.492 -2.263,-2.909 -12.407,-16.529 -12.54,-18.133 -0.169,-1.531 0.485,-2.509 0.803,-2.853 0.093,-0.101 0.117,-0.205 0.045,-0.303zm8.929 22.861l0 0c-0.31,-0.647 -0.345,-0.888 -0.345,-0.888 0,0 0.512,1.067 0.975,1.508 0.38,0.391 0.89,0.742 2.047,1.049 -1.439,-0.064 -2.309,-0.902 -2.677,-1.669zm-9.187 -22.543l0 0c-0.318,0.344 -1.002,1.276 -0.832,2.807 0,0 -0.286,-1.028 0.324,-2.373 0.085,-0.187 0.311,-0.611 0.194,-0.875 -0.131,-0.292 -0.423,-0.758 -1.137,-1.87 0.711,0.947 1.283,1.712 1.496,2.007 0.071,0.099 0.048,0.203 -0.045,0.304z"/>
    </g>
    <path class="fil9" d="M76.98 56.375c1.681,-0.603 3.249,-2.126 4.116,-4.221 1.395,-3.375 0.442,-6.958 -2.129,-8.004 -2.571,-1.045 -5.786,0.843 -7.181,4.218 -0.863,2.086 -0.828,4.253 -0.068,5.849 -0.05,0.1 -0.091,0.182 -0.122,0.245 -0.053,0.109 -0.017,0.205 0.085,0.285 0.351,0.275 1.13,1.053 1.184,2.565 0.098,1.577 -6.739,14.486 -8.478,17.711 -0.431,0.802 -0.552,2.137 0.4,3.397l0.001 0.001c1.571,-0.234 2.429,-1.27 2.689,-2.142 1.045,-3.507 5.315,-17.46 6.501,-18.514 1.109,-1.04 2.215,-1.051 2.658,-1.003 0.13,0.014 0.224,-0.029 0.263,-0.144 0.022,-0.063 0.049,-0.145 0.081,-0.243zm-5.088 -1.802l0 0c-0.097,-0.076 -0.132,-0.166 -0.082,-0.267 0.029,-0.058 0.067,-0.135 0.114,-0.227 -0.725,-1.492 -0.769,-3.511 0.033,-5.451 -0.746,2.346 -0.399,3.737 0.303,5.241 -0.049,0.092 -0.088,0.168 -0.118,0.226 -0.052,0.1 -0.018,0.191 0.077,0.268 0.783,1.148 0.936,1.876 0.801,2.606 -0.059,-1.41 -0.797,-2.139 -1.128,-2.396zm-5.133 22.148l0 0c0.376,-0.511 0.714,-1.637 0.714,-1.637 0,0 0,0.24 -0.204,0.923 -0.241,0.809 -0.949,1.778 -2.305,2.101 1.054,-0.507 1.489,-0.94 1.795,-1.387zm9.727 -20.16l0 0c-0.325,-0.035 -0.996,-0.039 -1.767,0.349 0.865,-0.53 1.644,-0.551 2.042,-0.514 -0.002,0.006 -0.004,0.012 -0.006,0.018 -0.039,0.117 -0.136,0.161 -0.269,0.147zm1.948 -12.209l0 0c0.134,0.037 0.267,0.082 0.397,0.136 2.389,0.971 3.275,4.3 1.978,7.436 -0.545,1.319 -1.39,2.394 -2.364,3.124 0.785,-0.739 1.548,-1.92 2.015,-3.05 1.352,-3.27 0.584,-6.584 -2.026,-7.646z"/>
   </g>
  </g>
 </g>
</svg>
